<svg class="main-svg" xmlns="http://www.w3.org/2000/svg" xmlns:xlink="http://www.w3.org/1999/xlink" width="2200" height="546" style="" viewBox="0 0 1100 273"><rect x="0" y="0" width="1100" height="273" style="fill: rgb(255, 255, 255); fill-opacity: 1;"/><defs id="defs-c5e1f1"><g class="clips"><clipPath id="clipc5e1f1xyplot" class="plotclip"><rect width="1005" height="42.230769230769226"/></clipPath><clipPath id="clipc5e1f1x2y2plot" class="plotclip"><rect width="1005" height="42.230769230769226"/></clipPath><clipPath id="clipc5e1f1x3y3plot" class="plotclip"><rect width="1005" height="42.230769230769226"/></clipPath><clipPath class="axesclip" id="clipc5e1f1x"><rect x="80" y="0" width="1005" height="273"/></clipPath><clipPath class="axesclip" id="clipc5e1f1y"><rect x="0" y="50.00000000000002" width="1100" height="42.230769230769226"/></clipPath><clipPath class="axesclip" id="clipc5e1f1xy"><rect x="80" y="50.00000000000002" width="1005" height="42.230769230769226"/></clipPath><clipPath class="axesclip" id="clipc5e1f1y2"><rect x="0" y="120.3846153846154" width="1100" height="42.230769230769226"/></clipPath><clipPath class="axesclip" id="clipc5e1f1xy2"><rect x="80" y="120.3846153846154" width="1005" height="42.230769230769226"/></clipPath><clipPath class="axesclip" id="clipc5e1f1y3"><rect x="0" y="190.76923076923077" width="1100" height="42.230769230769226"/></clipPath><clipPath class="axesclip" id="clipc5e1f1xy3"><rect x="80" y="190.76923076923077" width="1005" height="42.230769230769226"/></clipPath><clipPath class="axesclip" id="clipc5e1f1x2"><rect x="80" y="0" width="1005" height="273"/></clipPath><clipPath class="axesclip" id="clipc5e1f1x2y"><rect x="80" y="50.00000000000002" width="1005" height="42.230769230769226"/></clipPath><clipPath class="axesclip" id="clipc5e1f1x2y2"><rect x="80" y="120.3846153846154" width="1005" height="42.230769230769226"/></clipPath><clipPath class="axesclip" id="clipc5e1f1x2y3"><rect x="80" y="190.76923076923077" width="1005" height="42.230769230769226"/></clipPath><clipPath class="axesclip" id="clipc5e1f1x3"><rect x="80" y="0" width="1005" height="273"/></clipPath><clipPath class="axesclip" id="clipc5e1f1x3y"><rect x="80" y="50.00000000000002" width="1005" height="42.230769230769226"/></clipPath><clipPath class="axesclip" id="clipc5e1f1x3y2"><rect x="80" y="120.3846153846154" width="1005" height="42.230769230769226"/></clipPath><clipPath class="axesclip" id="clipc5e1f1x3y3"><rect x="80" y="190.76923076923077" width="1005" height="42.230769230769226"/></clipPath></g><g class="gradients"/><g class="patterns"/></defs><g class="bglayer"/><g class="layer-below"><g class="imagelayer"/><g class="shapelayer"/></g><g class="cartesianlayer"><g class="subplot xy"><g class="layer-subplot"><g class="shapelayer"/><g class="imagelayer"/></g><g class="minor-gridlayer"><g class="x"/><g class="y"/></g><g class="gridlayer"><g class="x"><path class="xgrid crisp" transform="translate(209.35,0)" d="M0,50.00000000000002v42.230769230769226" style="stroke: rgb(0, 0, 0); stroke-opacity: 0.1; stroke-width: 1px;"/><path class="xgrid crisp" transform="translate(333.73,0)" d="M0,50.00000000000002v42.230769230769226" style="stroke: rgb(0, 0, 0); stroke-opacity: 0.1; stroke-width: 1px;"/><path class="xgrid crisp" transform="translate(458.11,0)" d="M0,50.00000000000002v42.230769230769226" style="stroke: rgb(0, 0, 0); stroke-opacity: 0.1; stroke-width: 1px;"/><path class="xgrid crisp" transform="translate(582.49,0)" d="M0,50.00000000000002v42.230769230769226" style="stroke: rgb(0, 0, 0); stroke-opacity: 0.1; stroke-width: 1px;"/><path class="xgrid crisp" transform="translate(706.87,0)" d="M0,50.00000000000002v42.230769230769226" style="stroke: rgb(0, 0, 0); stroke-opacity: 0.1; stroke-width: 1px;"/><path class="xgrid crisp" transform="translate(831.24,0)" d="M0,50.00000000000002v42.230769230769226" style="stroke: rgb(0, 0, 0); stroke-opacity: 0.1; stroke-width: 1px;"/><path class="xgrid crisp" transform="translate(955.62,0)" d="M0,50.00000000000002v42.230769230769226" style="stroke: rgb(0, 0, 0); stroke-opacity: 0.1; stroke-width: 1px;"/><path class="xgrid crisp" transform="translate(1080,0)" d="M0,50.00000000000002v42.230769230769226" style="stroke: rgb(0, 0, 0); stroke-opacity: 0.1; stroke-width: 1px;"/></g><g class="y"><path class="ygrid crisp" transform="translate(0,71.12000000000002)" d="M80,0h1005" style="stroke: rgb(0, 0, 0); stroke-opacity: 0.1; stroke-width: 1px;"/></g></g><g class="zerolinelayer"><path class="xzl zl crisp" transform="translate(84.98,0)" d="M0,50.00000000000002v42.230769230769226" style="stroke: rgb(0, 0, 0); stroke-opacity: 0.1; stroke-width: 2px;"/></g><g class="layer-between"><g class="shapelayer"/><g class="imagelayer"/></g><path class="xlines-below"/><path class="ylines-below"/><g class="overlines-below"/><g class="xaxislayer-below"/><g class="yaxislayer-below"/><g class="overaxes-below"/><g class="overplot"><g class="xy" transform="translate(80,50.00000000000002)" clip-path="url(#clipc5e1f1xyplot)"><g class="violinlayer mlayer"><g class="trace violins" style="opacity: 0.5;"><path class="violin" d="M492.54,19.12Q493.67,18.07 494.2,17.43C494.78,16.72 495.32,15.89 495.85,15.04C496.42,14.13 496.96,13.11 497.51,12.15C498.06,11.19 498.59,10.15 499.17,9.28C499.7,8.49 500.21,7.63 500.83,7.13C501.34,6.72 501.94,6.33 502.49,6.33C503.04,6.33 503.64,6.72 504.15,7.13C504.77,7.63 505.27,8.49 505.8,9.28C506.38,10.15 506.91,11.19 507.46,12.15C508.01,13.11 508.55,14.13 509.12,15.04C509.66,15.89 510.2,16.72 510.78,17.43C511.31,18.07 511.86,18.66 512.44,19.12C512.97,19.54 513.53,19.88 514.1,20.14C514.64,20.39 515.19,20.55 515.75,20.69C516.3,20.82 516.86,20.89 517.41,20.95C517.96,21.01 518.52,21.03 519.07,21.06C519.62,21.08 520.18,21.09 520.73,21.1C521.28,21.11 521.84,21.11 522.39,21.11C522.94,21.11 523.5,21.11 524.05,21.11C524.6,21.11 525.15,21.12 525.7,21.12C526.25,21.12 526.81,21.12 527.36,21.12C527.91,21.12 528.47,21.12 529.02,21.12C529.57,21.12 530.13,21.12 530.68,21.12C531.23,21.12 531.79,21.12 532.34,21.12C532.89,21.12 533.45,21.12 534,21.12C534.55,21.12 535.11,21.12 535.66,21.12C536.21,21.12 536.76,21.12 537.31,21.12C537.86,21.12 538.42,21.12 538.97,21.12C539.52,21.12 540.08,21.12 540.63,21.12C541.18,21.12 541.74,21.12 542.29,21.12C542.84,21.12 543.4,21.12 543.95,21.12C544.5,21.12 545.06,21.12 545.61,21.12C546.16,21.12 546.71,21.12 547.26,21.12C547.81,21.12 548.37,21.12 548.92,21.12C549.47,21.12 550.03,21.12 550.58,21.12C551.13,21.12 551.69,21.12 552.24,21.12C552.79,21.12 553.35,21.12 553.9,21.12C554.45,21.12 555.01,21.12 555.56,21.12C556.11,21.12 556.66,21.12 557.21,21.12C557.76,21.12 558.32,21.12 558.87,21.12C559.42,21.12 559.98,21.12 560.53,21.12C561.08,21.12 561.64,21.12 562.19,21.12C562.74,21.12 563.3,21.12 563.85,21.12C564.4,21.12 564.96,21.12 565.51,21.12C566.06,21.12 566.61,21.12 567.16,21.12C567.71,21.12 568.27,21.12 568.82,21.12C569.37,21.12 569.93,21.12 570.48,21.12C571.03,21.12 571.59,21.12 572.14,21.12C572.69,21.12 573.25,21.12 573.8,21.12C574.35,21.12 574.91,21.12 575.46,21.12C576.01,21.12 576.56,21.12 577.11,21.12C577.66,21.12 578.22,21.12 578.77,21.12C579.32,21.12 579.88,21.12 580.43,21.12C580.98,21.12 581.54,21.12 582.09,21.12C582.64,21.12 583.2,21.12 583.75,21.12C584.3,21.12 584.86,21.12 585.41,21.12C585.96,21.12 586.51,21.12 587.06,21.12C587.61,21.12 588.17,21.12 588.72,21.12C589.27,21.12 589.83,21.12 590.38,21.12C590.93,21.12 591.49,21.12 592.04,21.12C592.59,21.12 593.15,21.12 593.7,21.12C594.25,21.12 594.81,21.12 595.36,21.12C595.91,21.12 596.46,21.12 597.01,21.12C597.56,21.12 598.12,21.12 598.67,21.12C599.22,21.12 599.78,21.12 600.33,21.12C600.88,21.12 601.44,21.12 601.99,21.12C602.54,21.12 603.1,21.12 603.65,21.12C604.2,21.12 604.76,21.12 605.31,21.12C605.86,21.12 606.42,21.12 606.97,21.12C607.52,21.12 608.07,21.12 608.62,21.12C609.17,21.12 609.73,21.12 610.28,21.12C610.83,21.12 611.39,21.12 611.94,21.12C612.49,21.12 613.05,21.12 613.6,21.12C614.15,21.12 614.71,21.12 615.26,21.12C615.81,21.12 616.37,21.12 616.92,21.12C617.47,21.12 618.02,21.12 618.57,21.12C619.12,21.12 619.68,21.12 620.23,21.12C620.78,21.12 621.34,21.12 621.89,21.12C622.44,21.12 623,21.12 623.55,21.12C624.1,21.12 624.66,21.12 625.21,21.12C625.76,21.12 626.32,21.12 626.87,21.12C627.42,21.12 627.97,21.12 628.52,21.12C629.07,21.12 629.63,21.12 630.18,21.12C630.73,21.12 631.29,21.12 631.84,21.12C632.39,21.12 632.95,21.12 633.5,21.12C634.05,21.12 634.61,21.12 635.16,21.12C635.71,21.12 636.27,21.12 636.82,21.12C637.37,21.12 637.92,21.12 638.47,21.12C639.02,21.12 639.58,21.12 640.13,21.12C640.68,21.12 641.24,21.12 641.79,21.12C642.34,21.12 642.9,21.12 643.45,21.12C644,21.12 644.56,21.12 645.11,21.12C645.66,21.12 646.22,21.12 646.77,21.12C647.32,21.12 647.87,21.12 648.42,21.12C648.97,21.12 649.53,21.12 650.08,21.12C650.63,21.12 651.19,21.12 651.74,21.12C652.29,21.12 652.85,21.12 653.4,21.12C653.95,21.12 654.51,21.12 655.06,21.12C655.61,21.12 656.17,21.12 656.72,21.12C657.27,21.12 657.82,21.12 658.37,21.12C658.92,21.12 659.48,21.12 660.03,21.12C660.58,21.12 661.14,21.12 661.69,21.12C662.24,21.12 662.8,21.12 663.35,21.12C663.9,21.12 664.46,21.12 665.01,21.12C665.56,21.12 666.12,21.12 666.67,21.12C667.22,21.12 667.78,21.12 668.33,21.12C668.88,21.12 669.43,21.12 669.98,21.12C670.53,21.12 671.09,21.12 671.64,21.12C672.19,21.12 672.75,21.12 673.3,21.12C673.85,21.12 674.41,21.12 674.96,21.12C675.51,21.12 676.07,21.12 676.62,21.12C677.17,21.12 677.73,21.12 678.28,21.12C678.83,21.12 679.38,21.12 679.93,21.12C680.48,21.12 681.04,21.12 681.59,21.12C682.14,21.12 682.7,21.12 683.25,21.12C683.8,21.12 684.36,21.12 684.91,21.12C685.46,21.12 686.02,21.12 686.57,21.12C687.12,21.12 687.68,21.12 688.23,21.12C688.78,21.12 689.33,21.12 689.88,21.12C690.43,21.12 690.99,21.12 691.54,21.12C692.09,21.12 692.65,21.12 693.2,21.12C693.75,21.12 694.31,21.12 694.86,21.12C695.41,21.12 695.97,21.12 696.52,21.12C697.07,21.12 697.63,21.12 698.18,21.12C698.73,21.12 699.28,21.12 699.83,21.12C700.38,21.12 700.94,21.12 701.49,21.12C702.04,21.12 702.6,21.12 703.15,21.12C703.7,21.12 704.26,21.12 704.81,21.12C705.36,21.12 705.92,21.12 706.47,21.12C707.02,21.12 707.58,21.12 708.13,21.12C708.68,21.12 709.23,21.12 709.78,21.12C710.33,21.12 710.89,21.12 711.44,21.12C711.99,21.12 712.55,21.12 713.1,21.12C713.65,21.12 714.21,21.12 714.76,21.12C715.31,21.12 715.87,21.12 716.42,21.12C716.97,21.12 717.53,21.12 718.08,21.12C718.63,21.12 719.18,21.12 719.73,21.12C720.28,21.12 720.84,21.12 721.39,21.12C721.94,21.12 722.5,21.12 723.05,21.12C723.6,21.12 724.16,21.12 724.71,21.12C725.26,21.12 725.82,21.12 726.37,21.12C726.92,21.12 727.48,21.12 728.03,21.12C728.58,21.12 729.13,21.12 729.68,21.12C730.23,21.12 730.79,21.12 731.34,21.12C731.89,21.12 732.45,21.12 733,21.12C733.55,21.12 734.11,21.12 734.66,21.12C735.21,21.12 735.77,21.12 736.32,21.12C736.87,21.12 737.43,21.12 737.98,21.12C738.53,21.12 739.09,21.12 739.64,21.12C740.19,21.12 740.74,21.12 741.29,21.12C741.84,21.12 742.4,21.12 742.95,21.12C743.5,21.12 744.06,21.12 744.61,21.12C745.16,21.12 745.72,21.12 746.27,21.12C746.82,21.12 747.38,21.12 747.93,21.12C748.48,21.12 749.04,21.12 749.59,21.12C750.14,21.12 750.69,21.12 751.24,21.12C751.79,21.12 752.35,21.12 752.9,21.12C753.45,21.12 754.01,21.12 754.56,21.12C755.11,21.12 755.67,21.12 756.22,21.12C756.77,21.12 757.33,21.12 757.88,21.12C758.43,21.12 758.99,21.12 759.54,21.12C760.09,21.12 760.64,21.12 761.19,21.12C761.74,21.12 762.3,21.12 762.85,21.12C763.4,21.12 763.96,21.12 764.51,21.12C765.06,21.12 765.62,21.12 766.17,21.12C766.72,21.12 767.28,21.12 767.83,21.12C768.38,21.12 768.94,21.12 769.49,21.12C770.04,21.12 770.59,21.12 771.14,21.12C771.69,21.12 772.25,21.12 772.8,21.12C773.35,21.12 773.91,21.12 774.46,21.12C775.01,21.12 775.57,21.12 776.12,21.12C776.67,21.12 777.23,21.12 777.78,21.12C778.33,21.12 778.89,21.12 779.44,21.12C779.99,21.12 780.54,21.12 781.09,21.12C781.64,21.12 782.2,21.12 782.75,21.12C783.3,21.12 783.86,21.12 784.41,21.12C784.96,21.12 785.52,21.12 786.07,21.12C786.62,21.12 787.18,21.12 787.73,21.12C788.28,21.12 788.84,21.12 789.39,21.12C789.94,21.12 790.49,21.12 791.04,21.12C791.59,21.12 792.15,21.12 792.7,21.12C793.25,21.12 793.81,21.12 794.36,21.12C794.91,21.12 795.47,21.12 796.02,21.12C796.57,21.12 797.13,21.12 797.68,21.12C798.23,21.12 798.79,21.12 799.34,21.12C799.89,21.12 800.45,21.12 801,21.12C801.55,21.12 802.1,21.12 802.65,21.12C803.2,21.12 803.76,21.12 804.31,21.12C804.86,21.12 805.42,21.12 805.97,21.12C806.52,21.12 807.08,21.12 807.63,21.12C808.18,21.12 808.74,21.12 809.29,21.12C809.84,21.12 810.4,21.12 810.95,21.12C811.5,21.12 812.05,21.12 812.6,21.12C813.15,21.12 813.71,21.12 814.26,21.12C814.81,21.12 815.37,21.12 815.92,21.12C816.47,21.12 817.03,21.12 817.58,21.12C818.13,21.12 818.69,21.12 819.24,21.12C819.79,21.12 820.35,21.12 820.9,21.12C821.45,21.12 822,21.12 822.55,21.12C823.1,21.12 823.66,21.12 824.21,21.12C824.76,21.12 825.32,21.12 825.87,21.12C826.42,21.12 826.98,21.12 827.53,21.12C828.08,21.12 828.64,21.12 829.19,21.12C829.74,21.12 830.3,21.12 830.85,21.12C831.4,21.12 831.95,21.12 832.5,21.12C833.05,21.12 833.61,21.12 834.16,21.12C834.71,21.12 835.27,21.12 835.82,21.12C836.37,21.12 836.93,21.12 837.48,21.12C838.03,21.12 838.59,21.12 839.14,21.12C839.69,21.12 840.25,21.12 840.8,21.12C841.35,21.12 841.9,21.12 842.45,21.12C843,21.12 843.56,21.12 844.11,21.12C844.66,21.12 845.22,21.12 845.77,21.12C846.32,21.12 846.88,21.12 847.43,21.12C847.98,21.12 848.54,21.12 849.09,21.12C849.64,21.12 850.2,21.12 850.75,21.12C851.3,21.12 851.85,21.12 852.4,21.12C852.95,21.12 853.51,21.12 854.06,21.12C854.61,21.12 855.17,21.12 855.72,21.12C856.27,21.12 856.83,21.12 857.38,21.12C857.93,21.12 858.49,21.12 859.04,21.12C859.59,21.12 860.15,21.12 860.7,21.12C861.25,21.12 861.8,21.12 862.35,21.12C862.9,21.12 863.46,21.12 864.01,21.12C864.56,21.12 865.12,21.12 865.67,21.12C866.22,21.12 866.78,21.12 867.33,21.12C867.88,21.12 868.44,21.12 868.99,21.12C869.54,21.12 870.1,21.12 870.65,21.12C871.2,21.12 871.76,21.12 872.31,21.12C872.86,21.12 873.41,21.12 873.96,21.12C874.51,21.12 875.07,21.12 875.62,21.12C876.17,21.12 876.73,21.12 877.28,21.12C877.83,21.12 878.39,21.12 878.94,21.12C879.49,21.12 880.05,21.12 880.6,21.12C881.15,21.12 881.71,21.12 882.26,21.12C882.81,21.12 883.36,21.12 883.91,21.12C884.46,21.12 885.02,21.12 885.57,21.12C886.12,21.12 886.68,21.12 887.23,21.12C887.78,21.12 888.34,21.12 888.89,21.12C889.44,21.12 890,21.12 890.55,21.12C891.1,21.12 891.66,21.12 892.21,21.12C892.76,21.12 893.31,21.12 893.86,21.12C894.41,21.12 894.97,21.12 895.52,21.12C896.07,21.12 896.63,21.12 897.18,21.12C897.73,21.12 898.29,21.12 898.84,21.12C899.39,21.12 899.95,21.12 900.5,21.12C901.05,21.12 901.61,21.12 902.16,21.12C902.71,21.12 903.26,21.12 903.81,21.12C904.36,21.12 904.92,21.12 905.47,21.12C906.02,21.12 906.58,21.12 907.13,21.12C907.68,21.12 908.24,21.12 908.79,21.12C909.34,21.12 909.9,21.12 910.45,21.12C911,21.12 911.56,21.12 912.11,21.12C912.66,21.12 913.21,21.12 913.76,21.12C914.31,21.12 914.87,21.12 915.42,21.12C915.97,21.12 916.53,21.12 917.08,21.12C917.63,21.12 918.19,21.12 918.74,21.12C919.29,21.12 919.85,21.12 920.4,21.12C920.95,21.12 921.51,21.12 922.06,21.12C922.61,21.12 923.16,21.12 923.71,21.12C924.26,21.12 924.82,21.12 925.37,21.12C925.92,21.12 926.48,21.12 927.03,21.12C927.58,21.12 928.14,21.12 928.69,21.12C929.24,21.12 929.8,21.12 930.35,21.12C930.9,21.12 931.46,21.12 932.01,21.12C932.56,21.12 933.12,21.12 933.67,21.12C934.22,21.12 934.77,21.12 935.32,21.12C935.87,21.12 936.43,21.12 936.98,21.12C937.53,21.12 938.09,21.12 938.64,21.12C939.19,21.12 939.75,21.12 940.3,21.12C940.85,21.12 941.41,21.12 941.96,21.12C942.51,21.12 943.07,21.12 943.62,21.12C944.17,21.12 944.72,21.12 945.27,21.12C945.82,21.12 946.38,21.12 946.93,21.12C947.48,21.12 948.04,21.12 948.59,21.12C949.14,21.12 949.7,21.12 950.25,21.12C950.8,21.12 951.36,21.12 951.91,21.12C952.46,21.12 953.02,21.12 953.57,21.12C954.12,21.12 954.67,21.12 955.22,21.12C955.77,21.12 956.33,21.12 956.88,21.12C957.43,21.12 957.99,21.12 958.54,21.12C959.09,21.12 959.65,21.12 960.2,21.12C960.75,21.12 961.31,21.12 961.86,21.12C962.41,21.12 962.97,21.12 963.52,21.12C964.07,21.12 964.62,21.12 965.17,21.12C965.72,21.12 966.28,21.12 966.83,21.12C967.38,21.12 967.94,21.12 968.49,21.12C969.04,21.12 969.6,21.12 970.15,21.12C970.7,21.12 971.26,21.12 971.81,21.12C972.36,21.12 972.92,21.12 973.47,21.12C974.02,21.12 974.57,21.12 975.12,21.12C975.67,21.12 976.23,21.12 976.78,21.12C977.33,21.12 977.89,21.12 978.44,21.12C978.99,21.12 979.55,21.12 980.1,21.12C980.65,21.12 981.21,21.11 981.76,21.11C982.31,21.11 982.87,21.11 983.42,21.11C983.97,21.11 984.52,21.11 985.07,21.11C985.62,21.11 986.18,21.1 986.73,21.09C987.28,21.08 987.84,21.07 988.39,21.06C988.94,21.05 989.5,21.03 990.05,21.01C990.6,20.99 991.16,20.95 991.71,20.92C992.26,20.88 992.82,20.85 993.37,20.8C993.92,20.75 994.47,20.69 995.02,20.64C995.57,20.59 996.13,20.53 996.68,20.49C997.23,20.45 997.79,20.41 998.34,20.38C998.89,20.36 999.45,20.34 1000,20.34C1000.55,20.34 1001.11,20.36 1001.66,20.38C1002.21,20.41 1002.77,20.45 1003.32,20.49C1003.87,20.53 1004.43,20.59 1004.98,20.64C1005.53,20.69 1006.08,20.75 1006.63,20.8C1007.18,20.85 1007.74,20.88 1008.29,20.92Q1008.84,20.95 1009.95,21.01L1009.95,21.22Q1008.84,21.27 1008.29,21.31C1007.74,21.35 1007.18,21.39 1006.63,21.44C1006.08,21.49 1005.53,21.54 1004.98,21.59C1004.43,21.64 1003.87,21.7 1003.32,21.74C1002.77,21.78 1002.21,21.82 1001.66,21.85C1001.11,21.87 1000.55,21.89 1000,21.89C999.45,21.89 998.89,21.87 998.34,21.85C997.79,21.82 997.23,21.78 996.68,21.74C996.13,21.7 995.57,21.64 995.02,21.59C994.47,21.54 993.92,21.49 993.37,21.44C992.82,21.39 992.26,21.35 991.71,21.31C991.16,21.27 990.6,21.24 990.05,21.22C989.5,21.2 988.94,21.18 988.39,21.17C987.84,21.16 987.28,21.15 986.73,21.14C986.18,21.13 985.62,21.12 985.07,21.12C984.52,21.12 983.97,21.12 983.42,21.12C982.87,21.12 982.31,21.12 981.76,21.12C981.21,21.12 980.65,21.12 980.1,21.12C979.55,21.12 978.99,21.12 978.44,21.12C977.89,21.12 977.33,21.12 976.78,21.12C976.23,21.12 975.67,21.12 975.12,21.12C974.57,21.12 974.02,21.12 973.47,21.12C972.92,21.12 972.36,21.12 971.81,21.12C971.26,21.12 970.7,21.12 970.15,21.12C969.6,21.12 969.04,21.12 968.49,21.12C967.94,21.12 967.38,21.12 966.83,21.12C966.28,21.12 965.72,21.12 965.17,21.12C964.62,21.12 964.07,21.12 963.52,21.12C962.97,21.12 962.41,21.12 961.86,21.12C961.31,21.12 960.75,21.12 960.2,21.12C959.65,21.12 959.09,21.12 958.54,21.12C957.99,21.12 957.43,21.12 956.88,21.12C956.33,21.12 955.77,21.12 955.22,21.12C954.67,21.12 954.12,21.12 953.57,21.12C953.02,21.12 952.46,21.12 951.91,21.12C951.36,21.12 950.8,21.12 950.25,21.12C949.7,21.12 949.14,21.12 948.59,21.12C948.04,21.12 947.48,21.12 946.93,21.12C946.38,21.12 945.82,21.12 945.27,21.12C944.72,21.12 944.17,21.12 943.62,21.12C943.07,21.12 942.51,21.12 941.96,21.12C941.41,21.12 940.85,21.12 940.3,21.12C939.75,21.12 939.19,21.12 938.64,21.12C938.09,21.12 937.53,21.12 936.98,21.12C936.43,21.12 935.87,21.12 935.32,21.12C934.77,21.12 934.22,21.12 933.67,21.12C933.12,21.12 932.56,21.12 932.01,21.12C931.46,21.12 930.9,21.12 930.35,21.12C929.8,21.12 929.24,21.12 928.69,21.12C928.14,21.12 927.58,21.12 927.03,21.12C926.48,21.12 925.92,21.12 925.37,21.12C924.82,21.12 924.26,21.12 923.71,21.12C923.16,21.12 922.61,21.12 922.06,21.12C921.51,21.12 920.95,21.12 920.4,21.12C919.85,21.12 919.29,21.12 918.74,21.12C918.19,21.12 917.63,21.12 917.08,21.12C916.53,21.12 915.97,21.12 915.42,21.12C914.87,21.12 914.31,21.12 913.76,21.12C913.21,21.12 912.66,21.12 912.11,21.12C911.56,21.12 911,21.12 910.45,21.12C909.9,21.12 909.34,21.12 908.79,21.12C908.24,21.12 907.68,21.12 907.13,21.12C906.58,21.12 906.02,21.12 905.47,21.12C904.92,21.12 904.36,21.12 903.81,21.12C903.26,21.12 902.71,21.12 902.16,21.12C901.61,21.12 901.05,21.12 900.5,21.12C899.95,21.12 899.39,21.12 898.84,21.12C898.29,21.12 897.73,21.12 897.18,21.12C896.63,21.12 896.07,21.12 895.52,21.12C894.97,21.12 894.41,21.12 893.86,21.12C893.31,21.12 892.76,21.12 892.21,21.12C891.66,21.12 891.1,21.12 890.55,21.12C890,21.12 889.44,21.12 888.89,21.12C888.34,21.12 887.78,21.12 887.23,21.12C886.68,21.12 886.12,21.12 885.57,21.12C885.02,21.12 884.46,21.12 883.91,21.12C883.36,21.12 882.81,21.12 882.26,21.12C881.71,21.12 881.15,21.12 880.6,21.12C880.05,21.12 879.49,21.12 878.94,21.12C878.39,21.12 877.83,21.12 877.28,21.12C876.73,21.12 876.17,21.12 875.62,21.12C875.07,21.12 874.51,21.12 873.96,21.12C873.41,21.12 872.86,21.12 872.31,21.12C871.76,21.12 871.2,21.12 870.65,21.12C870.1,21.12 869.54,21.12 868.99,21.12C868.44,21.12 867.88,21.12 867.33,21.12C866.78,21.12 866.22,21.12 865.67,21.12C865.12,21.12 864.56,21.12 864.01,21.12C863.46,21.12 862.9,21.12 862.35,21.12C861.8,21.12 861.25,21.12 860.7,21.12C860.15,21.12 859.59,21.12 859.04,21.12C858.49,21.12 857.93,21.12 857.38,21.12C856.83,21.12 856.27,21.12 855.72,21.12C855.17,21.12 854.61,21.12 854.06,21.12C853.51,21.12 852.95,21.12 852.4,21.12C851.85,21.12 851.3,21.12 850.75,21.12C850.2,21.12 849.64,21.12 849.09,21.12C848.54,21.12 847.98,21.12 847.43,21.12C846.88,21.12 846.32,21.12 845.77,21.12C845.22,21.12 844.66,21.12 844.11,21.12C843.56,21.12 843,21.12 842.45,21.12C841.9,21.12 841.35,21.12 840.8,21.12C840.25,21.12 839.69,21.12 839.14,21.12C838.59,21.12 838.03,21.12 837.48,21.12C836.93,21.12 836.37,21.12 835.82,21.12C835.27,21.12 834.71,21.12 834.16,21.12C833.61,21.12 833.05,21.12 832.5,21.12C831.95,21.12 831.4,21.12 830.85,21.12C830.3,21.12 829.74,21.12 829.19,21.12C828.64,21.12 828.08,21.12 827.53,21.12C826.98,21.12 826.42,21.12 825.87,21.12C825.32,21.12 824.76,21.12 824.21,21.12C823.66,21.12 823.1,21.12 822.55,21.12C822,21.12 821.45,21.12 820.9,21.12C820.35,21.12 819.79,21.12 819.24,21.12C818.69,21.12 818.13,21.12 817.58,21.12C817.03,21.12 816.47,21.12 815.92,21.12C815.37,21.12 814.81,21.12 814.26,21.12C813.71,21.12 813.15,21.12 812.6,21.12C812.05,21.12 811.5,21.12 810.95,21.12C810.4,21.12 809.84,21.12 809.29,21.12C808.74,21.12 808.18,21.12 807.63,21.12C807.08,21.12 806.52,21.12 805.97,21.12C805.42,21.12 804.86,21.12 804.31,21.12C803.76,21.12 803.2,21.12 802.65,21.12C802.1,21.12 801.55,21.12 801,21.12C800.45,21.12 799.89,21.12 799.34,21.12C798.79,21.12 798.23,21.12 797.68,21.12C797.13,21.12 796.57,21.12 796.02,21.12C795.47,21.12 794.91,21.12 794.36,21.12C793.81,21.12 793.25,21.12 792.7,21.12C792.15,21.12 791.59,21.12 791.04,21.12C790.49,21.12 789.94,21.12 789.39,21.12C788.84,21.12 788.28,21.12 787.73,21.12C787.18,21.12 786.62,21.12 786.07,21.12C785.52,21.12 784.96,21.12 784.41,21.12C783.86,21.12 783.3,21.12 782.75,21.12C782.2,21.12 781.64,21.12 781.09,21.12C780.54,21.12 779.99,21.12 779.44,21.12C778.89,21.12 778.33,21.12 777.78,21.12C777.23,21.12 776.67,21.12 776.12,21.12C775.57,21.12 775.01,21.12 774.46,21.12C773.91,21.12 773.35,21.12 772.8,21.12C772.25,21.12 771.69,21.12 771.14,21.12C770.59,21.12 770.04,21.12 769.49,21.12C768.94,21.12 768.38,21.12 767.83,21.12C767.28,21.12 766.72,21.12 766.17,21.12C765.62,21.12 765.06,21.12 764.51,21.12C763.96,21.12 763.4,21.12 762.85,21.12C762.3,21.12 761.74,21.12 761.19,21.12C760.64,21.12 760.09,21.12 759.54,21.12C758.99,21.12 758.43,21.12 757.88,21.12C757.33,21.12 756.77,21.12 756.22,21.12C755.67,21.12 755.11,21.12 754.56,21.12C754.01,21.12 753.45,21.12 752.9,21.12C752.35,21.12 751.79,21.12 751.24,21.12C750.69,21.12 750.14,21.12 749.59,21.12C749.04,21.12 748.48,21.12 747.93,21.12C747.38,21.12 746.82,21.12 746.27,21.12C745.72,21.12 745.16,21.12 744.61,21.12C744.06,21.12 743.5,21.12 742.95,21.12C742.4,21.12 741.84,21.12 741.29,21.12C740.74,21.12 740.19,21.12 739.64,21.12C739.09,21.12 738.53,21.12 737.98,21.12C737.43,21.12 736.87,21.12 736.32,21.12C735.77,21.12 735.21,21.12 734.66,21.12C734.11,21.12 733.55,21.12 733,21.12C732.45,21.12 731.89,21.12 731.34,21.12C730.79,21.12 730.23,21.12 729.68,21.12C729.13,21.12 728.58,21.12 728.03,21.12C727.48,21.12 726.92,21.12 726.37,21.12C725.82,21.12 725.26,21.12 724.71,21.12C724.16,21.12 723.6,21.12 723.05,21.12C722.5,21.12 721.94,21.12 721.39,21.12C720.84,21.12 720.28,21.12 719.73,21.12C719.18,21.12 718.63,21.12 718.08,21.12C717.53,21.12 716.97,21.12 716.42,21.12C715.87,21.12 715.31,21.12 714.76,21.12C714.21,21.12 713.65,21.12 713.1,21.12C712.55,21.12 711.99,21.12 711.44,21.12C710.89,21.12 710.33,21.12 709.78,21.12C709.23,21.12 708.68,21.12 708.13,21.12C707.58,21.12 707.02,21.12 706.47,21.12C705.92,21.12 705.36,21.12 704.81,21.12C704.26,21.12 703.7,21.12 703.15,21.12C702.6,21.12 702.04,21.12 701.49,21.12C700.94,21.12 700.38,21.12 699.83,21.12C699.28,21.12 698.73,21.12 698.18,21.12C697.63,21.12 697.07,21.12 696.52,21.12C695.97,21.12 695.41,21.12 694.86,21.12C694.31,21.12 693.75,21.12 693.2,21.12C692.65,21.12 692.09,21.12 691.54,21.12C690.99,21.12 690.43,21.12 689.88,21.12C689.33,21.12 688.78,21.12 688.23,21.12C687.68,21.12 687.12,21.12 686.57,21.12C686.02,21.12 685.46,21.12 684.91,21.12C684.36,21.12 683.8,21.12 683.25,21.12C682.7,21.12 682.14,21.12 681.59,21.12C681.04,21.12 680.48,21.12 679.93,21.12C679.38,21.12 678.83,21.12 678.28,21.12C677.73,21.12 677.17,21.12 676.62,21.12C676.07,21.12 675.51,21.12 674.96,21.12C674.41,21.12 673.85,21.12 673.3,21.12C672.75,21.12 672.19,21.12 671.64,21.12C671.09,21.12 670.53,21.12 669.98,21.12C669.43,21.12 668.88,21.12 668.33,21.12C667.78,21.12 667.22,21.12 666.67,21.12C666.12,21.12 665.56,21.12 665.01,21.12C664.46,21.12 663.9,21.12 663.35,21.12C662.8,21.12 662.24,21.12 661.69,21.12C661.14,21.12 660.58,21.12 660.03,21.12C659.48,21.12 658.92,21.12 658.37,21.12C657.82,21.12 657.27,21.12 656.72,21.12C656.17,21.12 655.61,21.12 655.06,21.12C654.51,21.12 653.95,21.12 653.4,21.12C652.85,21.12 652.29,21.12 651.74,21.12C651.19,21.12 650.63,21.12 650.08,21.12C649.53,21.12 648.97,21.12 648.42,21.12C647.87,21.12 647.32,21.12 646.77,21.12C646.22,21.12 645.66,21.12 645.11,21.12C644.56,21.12 644,21.12 643.45,21.12C642.9,21.12 642.34,21.12 641.79,21.12C641.24,21.12 640.68,21.12 640.13,21.12C639.58,21.12 639.02,21.12 638.47,21.12C637.92,21.12 637.37,21.12 636.82,21.12C636.27,21.12 635.71,21.12 635.16,21.12C634.61,21.12 634.05,21.12 633.5,21.12C632.95,21.12 632.39,21.12 631.84,21.12C631.29,21.12 630.73,21.12 630.18,21.12C629.63,21.12 629.07,21.12 628.52,21.12C627.97,21.12 627.42,21.12 626.87,21.12C626.32,21.12 625.76,21.12 625.21,21.12C624.66,21.12 624.1,21.12 623.55,21.12C623,21.12 622.44,21.12 621.89,21.12C621.34,21.12 620.78,21.12 620.23,21.12C619.68,21.12 619.12,21.12 618.57,21.12C618.02,21.12 617.47,21.12 616.92,21.12C616.37,21.12 615.81,21.12 615.26,21.12C614.71,21.12 614.15,21.12 613.6,21.12C613.05,21.12 612.49,21.12 611.94,21.12C611.39,21.12 610.83,21.12 610.28,21.12C609.73,21.12 609.17,21.12 608.62,21.12C608.07,21.12 607.52,21.12 606.97,21.12C606.42,21.12 605.86,21.12 605.31,21.12C604.76,21.12 604.2,21.12 603.65,21.12C603.1,21.12 602.54,21.12 601.99,21.12C601.44,21.12 600.88,21.12 600.33,21.12C599.78,21.12 599.22,21.12 598.67,21.12C598.12,21.12 597.56,21.12 597.01,21.12C596.46,21.12 595.91,21.12 595.36,21.12C594.81,21.12 594.25,21.12 593.7,21.12C593.15,21.12 592.59,21.12 592.04,21.12C591.49,21.12 590.93,21.12 590.38,21.12C589.83,21.12 589.27,21.12 588.72,21.12C588.17,21.12 587.61,21.12 587.06,21.12C586.51,21.12 585.96,21.12 585.41,21.12C584.86,21.12 584.3,21.12 583.75,21.12C583.2,21.12 582.64,21.12 582.09,21.12C581.54,21.12 580.98,21.12 580.43,21.12C579.88,21.12 579.32,21.12 578.77,21.12C578.22,21.12 577.66,21.12 577.11,21.12C576.56,21.12 576.01,21.12 575.46,21.12C574.91,21.12 574.35,21.12 573.8,21.12C573.25,21.12 572.69,21.12 572.14,21.12C571.59,21.12 571.03,21.12 570.48,21.12C569.93,21.12 569.37,21.12 568.82,21.12C568.27,21.12 567.71,21.12 567.16,21.12C566.61,21.12 566.06,21.12 565.51,21.12C564.96,21.12 564.4,21.12 563.85,21.12C563.3,21.12 562.74,21.12 562.19,21.12C561.64,21.12 561.08,21.12 560.53,21.12C559.98,21.12 559.42,21.12 558.87,21.12C558.32,21.12 557.76,21.12 557.21,21.12C556.66,21.12 556.11,21.12 555.56,21.12C555.01,21.12 554.45,21.12 553.9,21.12C553.35,21.12 552.79,21.12 552.24,21.12C551.69,21.12 551.13,21.12 550.58,21.12C550.03,21.12 549.47,21.12 548.92,21.12C548.37,21.12 547.81,21.12 547.26,21.12C546.71,21.12 546.16,21.12 545.61,21.12C545.06,21.12 544.5,21.12 543.95,21.12C543.4,21.12 542.84,21.12 542.29,21.12C541.74,21.12 541.18,21.12 540.63,21.12C540.08,21.12 539.52,21.12 538.97,21.12C538.42,21.12 537.86,21.12 537.31,21.12C536.76,21.12 536.21,21.12 535.66,21.12C535.11,21.12 534.55,21.12 534,21.12C533.45,21.12 532.89,21.12 532.34,21.12C531.79,21.12 531.23,21.12 530.68,21.12C530.13,21.12 529.57,21.12 529.02,21.12C528.47,21.12 527.91,21.12 527.36,21.12C526.81,21.12 526.25,21.12 525.7,21.12C525.15,21.12 524.6,21.12 524.05,21.12C523.5,21.12 522.94,21.12 522.39,21.12C521.84,21.12 521.28,21.12 520.73,21.13C520.18,21.14 519.62,21.15 519.07,21.17C518.52,21.2 517.96,21.22 517.41,21.28C516.86,21.34 516.3,21.41 515.75,21.54C515.19,21.68 514.64,21.84 514.1,22.09C513.53,22.36 512.97,22.7 512.44,23.12C511.86,23.58 511.31,24.17 510.78,24.8C510.19,25.5 509.66,26.34 509.12,27.19C508.55,28.1 508.01,29.12 507.46,30.08C506.91,31.04 506.38,32.08 505.8,32.95C505.27,33.74 504.77,34.6 504.15,35.1C503.64,35.51 503.04,35.9 502.49,35.9C501.94,35.9 501.34,35.51 500.83,35.1C500.21,34.6 499.7,33.74 499.17,32.95C498.59,32.08 498.06,31.04 497.51,30.08C496.96,29.12 496.42,28.1 495.85,27.19C495.32,26.34 494.78,25.5 494.2,24.8Q493.67,24.16 492.54,23.12Z" style="vector-effect: none; stroke-width: 2px; stroke: rgb(181, 181, 181); stroke-opacity: 1; fill: rgb(181, 181, 181); fill-opacity: 1;"/><path class="box" d="M502.49,24.81V17.42M502.49,24.81V17.42H502.49V24.81ZM502.49,21.12H502.49M502.49,21.12H502.49" style="vector-effect: non-scaling-stroke; stroke-width: 2px; stroke: rgb(181, 181, 181); stroke-opacity: 1; fill: rgb(181, 181, 181); fill-opacity: 1;"/><path class="mean" d="M527.36,24.81V17.42" style="fill: none; vector-effect: non-scaling-stroke; stroke-width: 2px; stroke-dasharray: 4px, 2px; stroke: rgb(181, 181, 181); stroke-opacity: 1;"/></g></g><g class="scatterlayer mlayer"><g class="trace scatter trace2146f6" style="stroke-miterlimit: 2; opacity: 1;"><g class="fills"/><g class="errorbars"/><g class="lines"/><g class="points"><path class="point" transform="translate(1000,21.12)" d="M2,0A2,2 0 1,1 0,-2A2,2 0 0,1 2,0Z" style="opacity: 1; stroke-width: 0px; fill: rgb(11, 121, 230); fill-opacity: 1;"/></g><g class="text"/></g><g class="trace scatter trace1fdafb" style="stroke-miterlimit: 2; opacity: 1;"><g class="fills"/><g class="errorbars"/><g class="lines"/><g class="points"><path class="point" transform="translate(502.49,21.12)" d="M2,0A2,2 0 1,1 0,-2A2,2 0 0,1 2,0Z" style="opacity: 1; stroke-width: 0px; fill: rgb(11, 121, 230); fill-opacity: 1;"/></g><g class="text"/></g><g class="trace scatter trace60ad60" style="stroke-miterlimit: 2; opacity: 1;"><g class="fills"/><g class="errorbars"/><g class="lines"/><g class="points"><path class="point" transform="translate(502.49,21.12)" d="M2,0A2,2 0 1,1 0,-2A2,2 0 0,1 2,0Z" style="opacity: 1; stroke-width: 0px; fill: rgb(11, 121, 230); fill-opacity: 1;"/></g><g class="text"/></g><g class="trace scatter trace0299a9" style="stroke-miterlimit: 2; opacity: 1;"><g class="fills"/><g class="errorbars"/><g class="lines"/><g class="points"><path class="point" transform="translate(502.49,21.12)" d="M2,0A2,2 0 1,1 0,-2A2,2 0 0,1 2,0Z" style="opacity: 1; stroke-width: 0px; fill: rgb(11, 121, 230); fill-opacity: 1;"/></g><g class="text"/></g><g class="trace scatter trace310665" style="stroke-miterlimit: 2; opacity: 1;"><g class="fills"/><g class="errorbars"/><g class="lines"/><g class="points"><path class="point" transform="translate(502.49,21.12)" d="M2,0A2,2 0 1,1 0,-2A2,2 0 0,1 2,0Z" style="opacity: 1; stroke-width: 0px; fill: rgb(11, 121, 230); fill-opacity: 1;"/></g><g class="text"/></g><g class="trace scatter traced64a80" style="stroke-miterlimit: 2; opacity: 1;"><g class="fills"/><g class="errorbars"/><g class="lines"/><g class="points"><path class="point" transform="translate(502.49,21.12)" d="M2,0A2,2 0 1,1 0,-2A2,2 0 0,1 2,0Z" style="opacity: 1; stroke-width: 0px; fill: rgb(11, 121, 230); fill-opacity: 1;"/></g><g class="text"/></g><g class="trace scatter trace8b5d2f" style="stroke-miterlimit: 2; opacity: 1;"><g class="fills"/><g class="errorbars"/><g class="lines"/><g class="points"><path class="point" transform="translate(502.49,21.12)" d="M2,0A2,2 0 1,1 0,-2A2,2 0 0,1 2,0Z" style="opacity: 1; stroke-width: 0px; fill: rgb(11, 121, 230); fill-opacity: 1;"/></g><g class="text"/></g><g class="trace scatter tracee3f4c0" style="stroke-miterlimit: 2; opacity: 1;"><g class="fills"/><g class="errorbars"/><g class="lines"/><g class="points"><path class="point" transform="translate(502.49,21.12)" d="M2,0A2,2 0 1,1 0,-2A2,2 0 0,1 2,0Z" style="opacity: 1; stroke-width: 0px; fill: rgb(11, 121, 230); fill-opacity: 1;"/></g><g class="text"/></g><g class="trace scatter traceb6353e" style="stroke-miterlimit: 2; opacity: 1;"><g class="fills"/><g class="errorbars"/><g class="lines"/><g class="points"><path class="point" transform="translate(502.49,21.12)" d="M2,0A2,2 0 1,1 0,-2A2,2 0 0,1 2,0Z" style="opacity: 1; stroke-width: 0px; fill: rgb(11, 121, 230); fill-opacity: 1;"/></g><g class="text"/></g><g class="trace scatter trace845864" style="stroke-miterlimit: 2; opacity: 1;"><g class="fills"/><g class="errorbars"/><g class="lines"/><g class="points"><path class="point" transform="translate(502.49,21.12)" d="M2,0A2,2 0 1,1 0,-2A2,2 0 0,1 2,0Z" style="opacity: 1; stroke-width: 0px; fill: rgb(11, 121, 230); fill-opacity: 1;"/></g><g class="text"/></g><g class="trace scatter trace016971" style="stroke-miterlimit: 2; opacity: 1;"><g class="fills"/><g class="errorbars"/><g class="lines"/><g class="points"><path class="point" transform="translate(502.49,21.12)" d="M2,0A2,2 0 1,1 0,-2A2,2 0 0,1 2,0Z" style="opacity: 1; stroke-width: 0px; fill: rgb(11, 121, 230); fill-opacity: 1;"/></g><g class="text"/></g><g class="trace scatter trace61258b" style="stroke-miterlimit: 2; opacity: 1;"><g class="fills"/><g class="errorbars"/><g class="lines"/><g class="points"><path class="point" transform="translate(502.49,21.12)" d="M2,0A2,2 0 1,1 0,-2A2,2 0 0,1 2,0Z" style="opacity: 1; stroke-width: 0px; fill: rgb(11, 121, 230); fill-opacity: 1;"/></g><g class="text"/></g><g class="trace scatter trace2e4253" style="stroke-miterlimit: 2; opacity: 1;"><g class="fills"/><g class="errorbars"/><g class="lines"/><g class="points"><path class="point" transform="translate(502.49,21.12)" d="M2,0A2,2 0 1,1 0,-2A2,2 0 0,1 2,0Z" style="opacity: 1; stroke-width: 0px; fill: rgb(11, 121, 230); fill-opacity: 1;"/></g><g class="text"/></g><g class="trace scatter trace03b1e1" style="stroke-miterlimit: 2; opacity: 1;"><g class="fills"/><g class="errorbars"/><g class="lines"/><g class="points"><path class="point" transform="translate(502.49,21.12)" d="M2,0A2,2 0 1,1 0,-2A2,2 0 0,1 2,0Z" style="opacity: 1; stroke-width: 0px; fill: rgb(11, 121, 230); fill-opacity: 1;"/></g><g class="text"/></g><g class="trace scatter trace7072b9" style="stroke-miterlimit: 2; opacity: 1;"><g class="fills"/><g class="errorbars"/><g class="lines"/><g class="points"><path class="point" transform="translate(502.49,21.12)" d="M2,0A2,2 0 1,1 0,-2A2,2 0 0,1 2,0Z" style="opacity: 1; stroke-width: 0px; fill: rgb(11, 121, 230); fill-opacity: 1;"/></g><g class="text"/></g><g class="trace scatter tracefe71dd" style="stroke-miterlimit: 2; opacity: 1;"><g class="fills"/><g class="errorbars"/><g class="lines"/><g class="points"><path class="point" transform="translate(502.49,21.12)" d="M2,0A2,2 0 1,1 0,-2A2,2 0 0,1 2,0Z" style="opacity: 1; stroke-width: 0px; fill: rgb(11, 121, 230); fill-opacity: 1;"/></g><g class="text"/></g><g class="trace scatter trace2b5004" style="stroke-miterlimit: 2; opacity: 1;"><g class="fills"/><g class="errorbars"/><g class="lines"/><g class="points"><path class="point" transform="translate(502.49,21.12)" d="M2,0A2,2 0 1,1 0,-2A2,2 0 0,1 2,0Z" style="opacity: 1; stroke-width: 0px; fill: rgb(11, 121, 230); fill-opacity: 1;"/></g><g class="text"/></g><g class="trace scatter trace046bc0" style="stroke-miterlimit: 2; opacity: 1;"><g class="fills"/><g class="errorbars"/><g class="lines"/><g class="points"><path class="point" transform="translate(502.49,21.12)" d="M2,0A2,2 0 1,1 0,-2A2,2 0 0,1 2,0Z" style="opacity: 1; stroke-width: 0px; fill: rgb(11, 121, 230); fill-opacity: 1;"/></g><g class="text"/></g><g class="trace scatter trace37430c" style="stroke-miterlimit: 2; opacity: 1;"><g class="fills"/><g class="errorbars"/><g class="lines"/><g class="points"><path class="point" transform="translate(502.49,21.12)" d="M2,0A2,2 0 1,1 0,-2A2,2 0 0,1 2,0Z" style="opacity: 1; stroke-width: 0px; fill: rgb(11, 121, 230); fill-opacity: 1;"/></g><g class="text"/></g><g class="trace scatter trace51d8cf" style="stroke-miterlimit: 2; opacity: 1;"><g class="fills"/><g class="errorbars"/><g class="lines"/><g class="points"><path class="point" transform="translate(502.49,21.12)" d="M2,0A2,2 0 1,1 0,-2A2,2 0 0,1 2,0Z" style="opacity: 1; stroke-width: 0px; fill: rgb(11, 121, 230); fill-opacity: 1;"/></g><g class="text"/></g></g></g></g><path class="xlines-above crisp" d="M0,0" style="fill: none;"/><path class="ylines-above crisp" d="M0,0" style="fill: none;"/><g class="overlines-above"/><g class="xaxislayer-above"><g class="xtick"><text text-anchor="middle" x="0" y="102.23076923076925" transform="translate(84.98,0)" style="font-family: 'Lucida Grande', 'Open Sans', verdana, arial, sans-serif; font-size: 9px; fill: rgb(0, 0, 0); fill-opacity: 0.5; white-space: pre; opacity: 1;">0</text></g><g class="xtick"><text text-anchor="middle" x="0" y="102.23076923076925" style="font-family: 'Lucida Grande', 'Open Sans', verdana, arial, sans-serif; font-size: 9px; fill: rgb(0, 0, 0); fill-opacity: 0.5; white-space: pre; opacity: 1;" transform="translate(209.35,0)">1</text></g><g class="xtick"><text text-anchor="middle" x="0" y="102.23076923076925" style="font-family: 'Lucida Grande', 'Open Sans', verdana, arial, sans-serif; font-size: 9px; fill: rgb(0, 0, 0); fill-opacity: 0.5; white-space: pre; opacity: 1;" transform="translate(333.73,0)">2</text></g><g class="xtick"><text text-anchor="middle" x="0" y="102.23076923076925" style="font-family: 'Lucida Grande', 'Open Sans', verdana, arial, sans-serif; font-size: 9px; fill: rgb(0, 0, 0); fill-opacity: 0.5; white-space: pre; opacity: 1;" transform="translate(458.11,0)">3</text></g><g class="xtick"><text text-anchor="middle" x="0" y="102.23076923076925" style="font-family: 'Lucida Grande', 'Open Sans', verdana, arial, sans-serif; font-size: 9px; fill: rgb(0, 0, 0); fill-opacity: 0.5; white-space: pre; opacity: 1;" transform="translate(582.49,0)">4</text></g><g class="xtick"><text text-anchor="middle" x="0" y="102.23076923076925" style="font-family: 'Lucida Grande', 'Open Sans', verdana, arial, sans-serif; font-size: 9px; fill: rgb(0, 0, 0); fill-opacity: 0.5; white-space: pre; opacity: 1;" transform="translate(706.87,0)">5</text></g><g class="xtick"><text text-anchor="middle" x="0" y="102.23076923076925" style="font-family: 'Lucida Grande', 'Open Sans', verdana, arial, sans-serif; font-size: 9px; fill: rgb(0, 0, 0); fill-opacity: 0.5; white-space: pre; opacity: 1;" transform="translate(831.24,0)">6</text></g><g class="xtick"><text text-anchor="middle" x="0" y="102.23076923076925" style="font-family: 'Lucida Grande', 'Open Sans', verdana, arial, sans-serif; font-size: 9px; fill: rgb(0, 0, 0); fill-opacity: 0.5; white-space: pre; opacity: 1;" transform="translate(955.62,0)">7</text></g><g class="xtick"><text text-anchor="middle" x="0" y="102.23076923076925" style="font-family: 'Lucida Grande', 'Open Sans', verdana, arial, sans-serif; font-size: 9px; fill: rgb(0, 0, 0); fill-opacity: 0.5; white-space: pre; opacity: 1;" transform="translate(1080,0)">8</text></g></g><g class="yaxislayer-above"><g class="ytick"><text text-anchor="end" x="79" y="3.15" transform="translate(0,71.12000000000002)" style="font-family: 'Lucida Grande', 'Open Sans', verdana, arial, sans-serif; font-size: 9px; fill: rgb(0, 0, 0); fill-opacity: 0.5; white-space: pre; opacity: 1;">Reports  </text></g></g><g class="overaxes-above"/></g><g class="subplot x2y2"><g class="layer-subplot"><g class="shapelayer"/><g class="imagelayer"/></g><g class="minor-gridlayer"><g class="x2"/><g class="y2"/></g><g class="gridlayer"><g class="x2"><path class="x2grid crisp" transform="translate(225.32,0)" d="M0,120.3846153846154v42.230769230769226" style="stroke: rgb(0, 0, 0); stroke-opacity: 0.1; stroke-width: 1px;"/><path class="x2grid crisp" transform="translate(365.66,0)" d="M0,120.3846153846154v42.230769230769226" style="stroke: rgb(0, 0, 0); stroke-opacity: 0.1; stroke-width: 1px;"/><path class="x2grid crisp" transform="translate(506,0)" d="M0,120.3846153846154v42.230769230769226" style="stroke: rgb(0, 0, 0); stroke-opacity: 0.1; stroke-width: 1px;"/><path class="x2grid crisp" transform="translate(646.34,0)" d="M0,120.3846153846154v42.230769230769226" style="stroke: rgb(0, 0, 0); stroke-opacity: 0.1; stroke-width: 1px;"/><path class="x2grid crisp" transform="translate(786.69,0)" d="M0,120.3846153846154v42.230769230769226" style="stroke: rgb(0, 0, 0); stroke-opacity: 0.1; stroke-width: 1px;"/><path class="x2grid crisp" transform="translate(927.03,0)" d="M0,120.3846153846154v42.230769230769226" style="stroke: rgb(0, 0, 0); stroke-opacity: 0.1; stroke-width: 1px;"/><path class="x2grid crisp" transform="translate(1067.37,0)" d="M0,120.3846153846154v42.230769230769226" style="stroke: rgb(0, 0, 0); stroke-opacity: 0.1; stroke-width: 1px;"/></g><g class="y2"><path class="y2grid crisp" transform="translate(0,141.5046153846154)" d="M80,0h1005" style="stroke: rgb(0, 0, 0); stroke-opacity: 0.1; stroke-width: 1px;"/></g></g><g class="zerolinelayer"><path class="x2zl zl crisp" transform="translate(84.98,0)" d="M0,120.3846153846154v42.230769230769226" style="stroke: rgb(0, 0, 0); stroke-opacity: 0.1; stroke-width: 2px;"/></g><g class="layer-between"><g class="shapelayer"/><g class="imagelayer"/></g><path class="xlines-below"/><path class="ylines-below"/><g class="overlines-below"/><g class="xaxislayer-below"/><g class="yaxislayer-below"/><g class="overaxes-below"/><g class="overplot"><g class="x2y2" transform="translate(80,120.3846153846154)" clip-path="url(#clipc5e1f1x2y2plot)"><g class="violinlayer mlayer"><g class="trace violins" style="opacity: 0.5;"><path class="violin" d="M-74.69,19.87Q-64.29,19.22 -59.1,18.74C-53.9,18.26 -48.71,17.68 -43.52,17.01C-38.32,16.34 -33.12,15.54 -27.93,14.72C-22.73,13.9 -17.54,12.96 -12.34,12.09C-7.14,11.22 -1.95,10.28 3.25,9.52C8.44,8.76 13.63,8.03 18.83,7.51C24.02,6.99 29.22,6.61 34.42,6.41C39.61,6.21 44.82,6.21 50.01,6.33C55.21,6.45 60.41,6.77 65.6,7.13C70.8,7.49 76,8 81.19,8.48C86.39,8.96 91.58,9.52 96.77,10.02C101.97,10.53 107.16,11.04 112.36,11.51C117.56,11.98 122.75,12.42 127.95,12.83C133.15,13.24 138.34,13.6 143.54,13.96C148.74,14.32 153.93,14.64 159.13,14.97C164.32,15.3 169.52,15.61 174.71,15.94C179.91,16.27 185.1,16.6 190.3,16.93C195.5,17.26 200.69,17.6 205.89,17.92C211.09,18.24 216.28,18.56 221.48,18.85C226.68,19.14 231.87,19.42 237.07,19.65C242.26,19.88 247.46,20.07 252.65,20.24C257.85,20.41 263.04,20.54 268.24,20.65C273.44,20.76 278.63,20.83 283.83,20.89C289.03,20.95 294.22,20.99 299.42,21.02C304.62,21.05 309.81,21.07 315.01,21.08C320.2,21.09 325.4,21.1 330.59,21.1C335.79,21.11 340.98,21.11 346.18,21.11C351.38,21.11 356.57,21.11 361.77,21.11C366.97,21.11 372.16,21.11 377.36,21.11C382.56,21.11 387.75,21.11 392.95,21.11C398.14,21.11 403.34,21.1 408.53,21.09C413.73,21.08 418.92,21.07 424.12,21.06C429.32,21.04 434.51,21.03 439.71,21C444.91,20.97 450.1,20.94 455.3,20.9C460.5,20.85 465.69,20.79 470.89,20.73C476.08,20.67 481.28,20.6 486.47,20.52C491.67,20.44 496.86,20.35 502.06,20.27C507.26,20.19 512.45,20.12 517.65,20.06C522.85,20 528.04,19.95 533.24,19.93C538.44,19.91 543.63,19.89 548.83,19.91C554.02,19.93 559.22,19.98 564.41,20.03C569.61,20.08 574.8,20.16 580,20.23C585.2,20.3 590.39,20.39 595.59,20.47C600.79,20.55 605.98,20.62 611.18,20.69C616.38,20.76 621.57,20.82 626.77,20.87C631.96,20.92 637.16,20.96 642.35,20.99C647.55,21.02 652.74,21.03 657.94,21.05C663.14,21.07 668.33,21.08 673.53,21.09C678.73,21.1 683.92,21.11 689.12,21.11C694.32,21.11 699.51,21.11 704.71,21.11C709.9,21.11 715.1,21.11 720.29,21.11C725.49,21.11 730.68,21.12 735.88,21.12C741.08,21.12 746.27,21.12 751.47,21.12C756.67,21.12 761.86,21.12 767.06,21.12C772.25,21.12 777.45,21.12 782.64,21.12C787.84,21.12 793.03,21.12 798.23,21.12C803.43,21.12 808.62,21.11 813.82,21.11C819.02,21.11 824.21,21.11 829.41,21.11C834.61,21.11 839.8,21.11 845,21.11C850.19,21.11 855.39,21.1 860.58,21.1C865.78,21.09 870.97,21.09 876.17,21.08C881.37,21.07 886.56,21.05 891.76,21.03C896.96,21.01 902.15,20.98 907.35,20.94C912.55,20.9 917.74,20.86 922.94,20.8C928.13,20.74 933.33,20.67 938.52,20.6C943.72,20.53 948.91,20.44 954.11,20.36C959.31,20.28 964.5,20.2 969.7,20.13C974.9,20.06 980.09,20 985.29,19.96C990.49,19.92 995.68,19.9 1000.88,19.9C1006.07,19.9 1011.27,19.93 1016.46,19.97C1021.66,20.01 1026.85,20.08 1032.05,20.15C1037.25,20.22 1042.44,20.31 1047.64,20.39C1052.84,20.47 1058.03,20.55 1063.23,20.62C1068.43,20.69 1073.62,20.75 1078.82,20.81Q1084.01,20.86 1094.4,20.95L1094.4,21.28Q1084.01,21.37 1078.82,21.42C1073.62,21.48 1068.43,21.54 1063.23,21.61C1058.03,21.68 1052.84,21.76 1047.64,21.84C1042.44,21.92 1037.25,22.01 1032.05,22.08C1026.85,22.15 1021.66,22.22 1016.46,22.26C1011.27,22.3 1006.07,22.33 1000.88,22.33C995.68,22.33 990.49,22.31 985.29,22.27C980.09,22.23 974.9,22.17 969.7,22.1C964.5,22.03 959.31,21.95 954.11,21.87C948.91,21.79 943.72,21.7 938.52,21.63C933.33,21.56 928.13,21.5 922.94,21.44C917.74,21.38 912.55,21.33 907.35,21.29C902.15,21.25 896.96,21.22 891.76,21.2C886.56,21.18 881.37,21.16 876.17,21.15C870.97,21.14 865.78,21.14 860.58,21.13C855.39,21.13 850.19,21.12 845,21.12C839.8,21.12 834.61,21.12 829.41,21.12C824.21,21.12 819.02,21.12 813.82,21.12C808.62,21.12 803.43,21.12 798.23,21.12C793.03,21.12 787.84,21.12 782.64,21.12C777.45,21.12 772.25,21.12 767.06,21.12C761.86,21.12 756.67,21.12 751.47,21.12C746.27,21.12 741.08,21.12 735.88,21.12C730.68,21.12 725.49,21.12 720.29,21.12C715.1,21.12 709.9,21.12 704.71,21.12C699.51,21.12 694.32,21.13 689.12,21.13C683.92,21.13 678.73,21.13 673.53,21.14C668.33,21.15 663.14,21.16 657.94,21.18C652.74,21.2 647.55,21.21 642.35,21.24C637.16,21.27 631.96,21.31 626.77,21.36C621.57,21.41 616.38,21.47 611.18,21.54C605.98,21.61 600.79,21.68 595.59,21.76C590.39,21.84 585.2,21.93 580,22C574.8,22.07 569.61,22.15 564.41,22.2C559.22,22.25 554.02,22.3 548.83,22.32C543.63,22.34 538.44,22.33 533.24,22.31C528.04,22.29 522.85,22.23 517.65,22.17C512.45,22.11 507.26,22.03 502.06,21.96C496.86,21.88 491.67,21.8 486.47,21.72C481.28,21.64 476.08,21.56 470.89,21.5C465.69,21.44 460.5,21.39 455.3,21.34C450.1,21.3 444.91,21.26 439.71,21.23C434.51,21.2 429.32,21.19 424.12,21.17C418.92,21.16 413.73,21.15 408.53,21.14C403.34,21.13 398.14,21.12 392.95,21.12C387.75,21.12 382.56,21.12 377.36,21.12C372.16,21.12 366.97,21.12 361.77,21.12C356.57,21.12 351.38,21.12 346.18,21.12C340.98,21.12 335.79,21.12 330.59,21.13C325.4,21.13 320.2,21.14 315.01,21.15C309.81,21.16 304.62,21.18 299.42,21.21C294.22,21.24 289.03,21.28 283.83,21.34C278.63,21.4 273.44,21.47 268.24,21.58C263.04,21.69 257.85,21.82 252.65,21.99C247.46,22.16 242.26,22.36 237.07,22.59C231.87,22.82 226.68,23.09 221.48,23.38C216.28,23.67 211.09,23.99 205.89,24.31C200.69,24.63 195.5,24.97 190.3,25.3C185.1,25.63 179.91,25.96 174.71,26.29C169.52,26.62 164.32,26.94 159.13,27.27C153.93,27.6 148.74,27.93 143.54,28.28C138.34,28.64 133.15,28.99 127.95,29.4C122.75,29.81 117.56,30.25 112.36,30.72C107.16,31.19 101.97,31.7 96.77,32.21C91.58,32.71 86.39,33.27 81.19,33.75C76,34.23 70.8,34.74 65.6,35.1C60.41,35.46 55.21,35.78 50.01,35.9C44.82,36.02 39.61,36.02 34.42,35.82C29.22,35.62 24.02,35.24 18.83,34.72C13.63,34.2 8.44,33.47 3.25,32.71C-1.95,31.95 -7.14,31.01 -12.34,30.14C-17.54,29.27 -22.73,28.33 -27.93,27.51C-33.12,26.69 -38.32,25.89 -43.52,25.22C-48.71,24.55 -53.9,23.97 -59.1,23.49Q-64.29,23.01 -74.69,22.36Z" style="vector-effect: none; stroke-width: 2px; stroke: rgb(181, 181, 181); stroke-opacity: 1; fill: rgb(181, 181, 181); fill-opacity: 1;"/><path class="box" d="M59.36,24.81V17.42M23.22,24.81V17.42H132.69V24.81ZM23.22,21.12H19.71M132.69,21.12H178.3" style="vector-effect: non-scaling-stroke; stroke-width: 2px; stroke: rgb(181, 181, 181); stroke-opacity: 1; fill: rgb(181, 181, 181); fill-opacity: 1;"/><path class="mean" d="M139.95,24.81V17.42" style="fill: none; vector-effect: non-scaling-stroke; stroke-width: 2px; stroke-dasharray: 4px, 2px; stroke: rgb(181, 181, 181); stroke-opacity: 1;"/></g></g><g class="scatterlayer mlayer"><g class="trace scatter trace47f23c" style="stroke-miterlimit: 2; opacity: 1;"><g class="fills"/><g class="errorbars"/><g class="lines"/><g class="points"><path class="point" transform="translate(1000,21.12)" d="M2,0A2,2 0 1,1 0,-2A2,2 0 0,1 2,0Z" style="opacity: 1; stroke-width: 0px; fill: rgb(11, 121, 230); fill-opacity: 1;"/></g><g class="text"/></g><g class="trace scatter tracee2d93d" style="stroke-miterlimit: 2; opacity: 1;"><g class="fills"/><g class="errorbars"/><g class="lines"/><g class="points"><path class="point" transform="translate(542.49,21.12)" d="M2,0A2,2 0 1,1 0,-2A2,2 0 0,1 2,0Z" style="opacity: 1; stroke-width: 0px; fill: rgb(11, 121, 230); fill-opacity: 1;"/></g><g class="text"/></g><g class="trace scatter trace33435c" style="stroke-miterlimit: 2; opacity: 1;"><g class="fills"/><g class="errorbars"/><g class="lines"/><g class="points"><path class="point" transform="translate(178.3,21.12)" d="M2,0A2,2 0 1,1 0,-2A2,2 0 0,1 2,0Z" style="opacity: 1; stroke-width: 0px; fill: rgb(11, 121, 230); fill-opacity: 1;"/></g><g class="text"/></g><g class="trace scatter trace562c25" style="stroke-miterlimit: 2; opacity: 1;"><g class="fills"/><g class="errorbars"/><g class="lines"/><g class="points"><path class="point" transform="translate(175.49,21.12)" d="M2,0A2,2 0 1,1 0,-2A2,2 0 0,1 2,0Z" style="opacity: 1; stroke-width: 0px; fill: rgb(11, 121, 230); fill-opacity: 1;"/></g><g class="text"/></g><g class="trace scatter trace36c114" style="stroke-miterlimit: 2; opacity: 1;"><g class="fills"/><g class="errorbars"/><g class="lines"/><g class="points"><path class="point" transform="translate(159.35,21.12)" d="M2,0A2,2 0 1,1 0,-2A2,2 0 0,1 2,0Z" style="opacity: 1; stroke-width: 0px; fill: rgb(11, 121, 230); fill-opacity: 1;"/></g><g class="text"/></g><g class="trace scatter trace9efcc5" style="stroke-miterlimit: 2; opacity: 1;"><g class="fills"/><g class="errorbars"/><g class="lines"/><g class="points"><path class="point" transform="translate(106.02,21.12)" d="M2,0A2,2 0 1,1 0,-2A2,2 0 0,1 2,0Z" style="opacity: 1; stroke-width: 0px; fill: rgb(11, 121, 230); fill-opacity: 1;"/></g><g class="text"/></g><g class="trace scatter trace2fac6c" style="stroke-miterlimit: 2; opacity: 1;"><g class="fills"/><g class="errorbars"/><g class="lines"/><g class="points"><path class="point" transform="translate(104.62,21.12)" d="M2,0A2,2 0 1,1 0,-2A2,2 0 0,1 2,0Z" style="opacity: 1; stroke-width: 0px; fill: rgb(11, 121, 230); fill-opacity: 1;"/></g><g class="text"/></g><g class="trace scatter trace921629" style="stroke-miterlimit: 2; opacity: 1;"><g class="fills"/><g class="errorbars"/><g class="lines"/><g class="points"><path class="point" transform="translate(103.92,21.12)" d="M2,0A2,2 0 1,1 0,-2A2,2 0 0,1 2,0Z" style="opacity: 1; stroke-width: 0px; fill: rgb(11, 121, 230); fill-opacity: 1;"/></g><g class="text"/></g><g class="trace scatter traced13904" style="stroke-miterlimit: 2; opacity: 1;"><g class="fills"/><g class="errorbars"/><g class="lines"/><g class="points"><path class="point" transform="translate(82.86,21.12)" d="M2,0A2,2 0 1,1 0,-2A2,2 0 0,1 2,0Z" style="opacity: 1; stroke-width: 0px; fill: rgb(11, 121, 230); fill-opacity: 1;"/></g><g class="text"/></g><g class="trace scatter trace712e6d" style="stroke-miterlimit: 2; opacity: 1;"><g class="fills"/><g class="errorbars"/><g class="lines"/><g class="points"><path class="point" transform="translate(62.52,21.12)" d="M2,0A2,2 0 1,1 0,-2A2,2 0 0,1 2,0Z" style="opacity: 1; stroke-width: 0px; fill: rgb(11, 121, 230); fill-opacity: 1;"/></g><g class="text"/></g><g class="trace scatter trace767e7f" style="stroke-miterlimit: 2; opacity: 1;"><g class="fills"/><g class="errorbars"/><g class="lines"/><g class="points"><path class="point" transform="translate(56.2,21.12)" d="M2,0A2,2 0 1,1 0,-2A2,2 0 0,1 2,0Z" style="opacity: 1; stroke-width: 0px; fill: rgb(11, 121, 230); fill-opacity: 1;"/></g><g class="text"/></g><g class="trace scatter trace91bb24" style="stroke-miterlimit: 2; opacity: 1;"><g class="fills"/><g class="errorbars"/><g class="lines"/><g class="points"><path class="point" transform="translate(37.25,21.12)" d="M2,0A2,2 0 1,1 0,-2A2,2 0 0,1 2,0Z" style="opacity: 1; stroke-width: 0px; fill: rgb(11, 121, 230); fill-opacity: 1;"/></g><g class="text"/></g><g class="trace scatter trace3e9a75" style="stroke-miterlimit: 2; opacity: 1;"><g class="fills"/><g class="errorbars"/><g class="lines"/><g class="points"><path class="point" transform="translate(34.45,21.12)" d="M2,0A2,2 0 1,1 0,-2A2,2 0 0,1 2,0Z" style="opacity: 1; stroke-width: 0px; fill: rgb(11, 121, 230); fill-opacity: 1;"/></g><g class="text"/></g><g class="trace scatter trace9ff83d" style="stroke-miterlimit: 2; opacity: 1;"><g class="fills"/><g class="errorbars"/><g class="lines"/><g class="points"><path class="point" transform="translate(26.73,21.12)" d="M2,0A2,2 0 1,1 0,-2A2,2 0 0,1 2,0Z" style="opacity: 1; stroke-width: 0px; fill: rgb(11, 121, 230); fill-opacity: 1;"/></g><g class="text"/></g><g class="trace scatter trace60f5de" style="stroke-miterlimit: 2; opacity: 1;"><g class="fills"/><g class="errorbars"/><g class="lines"/><g class="points"><path class="point" transform="translate(23.22,21.12)" d="M2,0A2,2 0 1,1 0,-2A2,2 0 0,1 2,0Z" style="opacity: 1; stroke-width: 0px; fill: rgb(11, 121, 230); fill-opacity: 1;"/></g><g class="text"/></g><g class="trace scatter trace07fd95" style="stroke-miterlimit: 2; opacity: 1;"><g class="fills"/><g class="errorbars"/><g class="lines"/><g class="points"><path class="point" transform="translate(23.22,21.12)" d="M2,0A2,2 0 1,1 0,-2A2,2 0 0,1 2,0Z" style="opacity: 1; stroke-width: 0px; fill: rgb(11, 121, 230); fill-opacity: 1;"/></g><g class="text"/></g><g class="trace scatter trace5b4504" style="stroke-miterlimit: 2; opacity: 1;"><g class="fills"/><g class="errorbars"/><g class="lines"/><g class="points"><path class="point" transform="translate(21.11,21.12)" d="M2,0A2,2 0 1,1 0,-2A2,2 0 0,1 2,0Z" style="opacity: 1; stroke-width: 0px; fill: rgb(11, 121, 230); fill-opacity: 1;"/></g><g class="text"/></g><g class="trace scatter trace1c4fe2" style="stroke-miterlimit: 2; opacity: 1;"><g class="fills"/><g class="errorbars"/><g class="lines"/><g class="points"><path class="point" transform="translate(21.11,21.12)" d="M2,0A2,2 0 1,1 0,-2A2,2 0 0,1 2,0Z" style="opacity: 1; stroke-width: 0px; fill: rgb(11, 121, 230); fill-opacity: 1;"/></g><g class="text"/></g><g class="trace scatter tracef5f010" style="stroke-miterlimit: 2; opacity: 1;"><g class="fills"/><g class="errorbars"/><g class="lines"/><g class="points"><path class="point" transform="translate(20.41,21.12)" d="M2,0A2,2 0 1,1 0,-2A2,2 0 0,1 2,0Z" style="opacity: 1; stroke-width: 0px; fill: rgb(11, 121, 230); fill-opacity: 1;"/></g><g class="text"/></g><g class="trace scatter tracee5b86c" style="stroke-miterlimit: 2; opacity: 1;"><g class="fills"/><g class="errorbars"/><g class="lines"/><g class="points"><path class="point" transform="translate(19.71,21.12)" d="M2,0A2,2 0 1,1 0,-2A2,2 0 0,1 2,0Z" style="opacity: 1; stroke-width: 0px; fill: rgb(11, 121, 230); fill-opacity: 1;"/></g><g class="text"/></g></g></g></g><path class="xlines-above crisp" d="M0,0" style="fill: none;"/><path class="ylines-above crisp" d="M0,0" style="fill: none;"/><g class="overlines-above"/><g class="xaxislayer-above"><g class="x2tick"><text text-anchor="middle" x="0" y="172.61538461538464" transform="translate(84.98,0)" style="font-family: 'Lucida Grande', 'Open Sans', verdana, arial, sans-serif; font-size: 9px; fill: rgb(0, 0, 0); fill-opacity: 0.5; white-space: pre; opacity: 1;">0</text></g><g class="x2tick"><text text-anchor="middle" x="0" y="172.61538461538464" style="font-family: 'Lucida Grande', 'Open Sans', verdana, arial, sans-serif; font-size: 9px; fill: rgb(0, 0, 0); fill-opacity: 0.5; white-space: pre; opacity: 1;" transform="translate(225.32,0)">200</text></g><g class="x2tick"><text text-anchor="middle" x="0" y="172.61538461538464" style="font-family: 'Lucida Grande', 'Open Sans', verdana, arial, sans-serif; font-size: 9px; fill: rgb(0, 0, 0); fill-opacity: 0.5; white-space: pre; opacity: 1;" transform="translate(365.66,0)">400</text></g><g class="x2tick"><text text-anchor="middle" x="0" y="172.61538461538464" style="font-family: 'Lucida Grande', 'Open Sans', verdana, arial, sans-serif; font-size: 9px; fill: rgb(0, 0, 0); fill-opacity: 0.5; white-space: pre; opacity: 1;" transform="translate(506,0)">600</text></g><g class="x2tick"><text text-anchor="middle" x="0" y="172.61538461538464" style="font-family: 'Lucida Grande', 'Open Sans', verdana, arial, sans-serif; font-size: 9px; fill: rgb(0, 0, 0); fill-opacity: 0.5; white-space: pre; opacity: 1;" transform="translate(646.34,0)">800</text></g><g class="x2tick"><text text-anchor="middle" x="0" y="172.61538461538464" style="font-family: 'Lucida Grande', 'Open Sans', verdana, arial, sans-serif; font-size: 9px; fill: rgb(0, 0, 0); fill-opacity: 0.5; white-space: pre; opacity: 1;" transform="translate(786.69,0)">1000</text></g><g class="x2tick"><text text-anchor="middle" x="0" y="172.61538461538464" style="font-family: 'Lucida Grande', 'Open Sans', verdana, arial, sans-serif; font-size: 9px; fill: rgb(0, 0, 0); fill-opacity: 0.5; white-space: pre; opacity: 1;" transform="translate(927.03,0)">1200</text></g><g class="x2tick"><text text-anchor="middle" x="0" y="172.61538461538464" style="font-family: 'Lucida Grande', 'Open Sans', verdana, arial, sans-serif; font-size: 9px; fill: rgb(0, 0, 0); fill-opacity: 0.5; white-space: pre; opacity: 1;" transform="translate(1067.37,0)">1400</text></g></g><g class="yaxislayer-above"><g class="y2tick"><text text-anchor="end" x="79" y="3.15" transform="translate(0,141.5046153846154)" style="font-family: 'Lucida Grande', 'Open Sans', verdana, arial, sans-serif; font-size: 9px; fill: rgb(0, 0, 0); fill-opacity: 0.5; white-space: pre; opacity: 1;">Occurrences  </text></g></g><g class="overaxes-above"/></g><g class="subplot x3y3"><g class="layer-subplot"><g class="shapelayer"/><g class="imagelayer"/></g><g class="minor-gridlayer"><g class="x3"/><g class="y3"/></g><g class="gridlayer"><g class="x3"><path class="x3grid crisp" transform="translate(283.98,0)" d="M0,190.76923076923077v42.230769230769226" style="stroke: rgb(0, 0, 0); stroke-opacity: 0.1; stroke-width: 1px;"/><path class="x3grid crisp" transform="translate(482.99,0)" d="M0,190.76923076923077v42.230769230769226" style="stroke: rgb(0, 0, 0); stroke-opacity: 0.1; stroke-width: 1px;"/><path class="x3grid crisp" transform="translate(681.99,0)" d="M0,190.76923076923077v42.230769230769226" style="stroke: rgb(0, 0, 0); stroke-opacity: 0.1; stroke-width: 1px;"/><path class="x3grid crisp" transform="translate(881,0)" d="M0,190.76923076923077v42.230769230769226" style="stroke: rgb(0, 0, 0); stroke-opacity: 0.1; stroke-width: 1px;"/><path class="x3grid crisp" transform="translate(1080,0)" d="M0,190.76923076923077v42.230769230769226" style="stroke: rgb(0, 0, 0); stroke-opacity: 0.1; stroke-width: 1px;"/></g><g class="y3"><path class="y3grid crisp" transform="translate(0,211.88923076923078)" d="M80,0h1005" style="stroke: rgb(0, 0, 0); stroke-opacity: 0.1; stroke-width: 1px;"/></g></g><g class="zerolinelayer"><path class="x3zl zl crisp" transform="translate(84.98,0)" d="M0,190.76923076923077v42.230769230769226" style="stroke: rgb(0, 0, 0); stroke-opacity: 0.1; stroke-width: 2px;"/></g><g class="layer-between"><g class="shapelayer"/><g class="imagelayer"/></g><path class="xlines-below"/><path class="ylines-below"/><g class="overlines-below"/><g class="xaxislayer-below"/><g class="yaxislayer-below"/><g class="overaxes-below"/><g class="overplot"><g class="x3y3" transform="translate(80,190.76923076923077)" clip-path="url(#clipc5e1f1x3y3plot)"><g class="violinlayer mlayer"><g class="trace violins" style="opacity: 0.5;"><path class="violin" d="M-0.67,19.87Q0.08,19.18 0.43,18.74C0.83,18.24 1.19,17.64 1.54,17.01C1.93,16.31 2.28,15.51 2.64,14.72C3.02,13.88 3.38,12.96 3.75,12.09C4.12,11.23 4.46,10.32 4.85,9.52C5.2,8.8 5.55,8.06 5.96,7.51C6.3,7.06 6.65,6.6 7.06,6.41C7.4,6.25 7.82,6.23 8.17,6.33C8.56,6.44 8.92,6.8 9.27,7.13C9.66,7.5 10.02,8.01 10.38,8.48C10.76,8.97 11.11,9.51 11.48,10.02C11.85,10.52 12.21,11.03 12.59,11.51C12.95,11.97 13.31,12.41 13.69,12.83C14.05,13.23 14.43,13.6 14.8,13.96C15.16,14.31 15.53,14.64 15.9,14.97C16.27,15.3 16.64,15.61 17.01,15.94C17.38,16.27 17.74,16.6 18.11,16.93C18.48,17.26 18.85,17.6 19.22,17.92C19.59,18.24 19.96,18.56 20.33,18.85C20.69,19.13 21.05,19.41 21.43,19.65C21.79,19.88 22.17,20.07 22.54,20.24C22.9,20.4 23.27,20.54 23.64,20.65C24.01,20.76 24.38,20.83 24.75,20.89C25.12,20.95 25.48,20.99 25.85,21.02C26.22,21.05 26.59,21.07 26.96,21.08C27.33,21.09 27.69,21.1 28.06,21.1C28.43,21.11 28.8,21.11 29.17,21.11C29.54,21.11 29.9,21.11 30.27,21.11C30.64,21.11 31.01,21.11 31.38,21.11C31.75,21.11 32.11,21.11 32.48,21.11C32.85,21.11 33.22,21.1 33.59,21.09C33.96,21.08 34.32,21.07 34.69,21.06C35.06,21.04 35.43,21.03 35.8,21C36.17,20.97 36.53,20.94 36.9,20.9C37.27,20.85 37.64,20.79 38.01,20.73C38.38,20.67 38.74,20.6 39.11,20.52C39.48,20.44 39.85,20.35 40.22,20.27C40.59,20.19 40.95,20.12 41.32,20.06C41.69,20 42.06,19.95 42.43,19.93C42.8,19.91 43.16,19.89 43.53,19.91C43.9,19.93 44.27,19.98 44.64,20.03C45.01,20.08 45.37,20.16 45.74,20.23C46.11,20.3 46.48,20.39 46.85,20.47C47.22,20.55 47.58,20.62 47.95,20.69C48.32,20.76 48.69,20.82 49.06,20.87C49.43,20.92 49.8,20.96 50.17,20.99C50.54,21.02 50.9,21.03 51.27,21.05C51.64,21.07 52.01,21.08 52.38,21.09C52.75,21.1 53.11,21.11 53.48,21.11C53.85,21.11 54.22,21.11 54.59,21.11C54.96,21.11 55.32,21.11 55.69,21.11C56.06,21.11 56.43,21.12 56.8,21.12C57.17,21.12 57.53,21.12 57.9,21.12C58.27,21.12 58.64,21.12 59.01,21.12C59.38,21.12 59.74,21.12 60.11,21.12C60.48,21.12 60.85,21.12 61.22,21.12C61.59,21.12 61.95,21.11 62.32,21.11C62.69,21.11 63.06,21.11 63.43,21.11C63.8,21.11 64.16,21.11 64.53,21.11C64.9,21.11 65.27,21.11 65.64,21.1C66.01,21.1 66.37,21.09 66.74,21.08C67.11,21.07 67.48,21.05 67.85,21.03C68.22,21.01 68.58,20.98 68.95,20.94C69.32,20.9 69.69,20.86 70.06,20.8C70.43,20.74 70.79,20.67 71.16,20.6C71.53,20.53 71.9,20.44 72.27,20.36C72.64,20.28 73,20.2 73.37,20.13C73.74,20.06 74.11,20 74.48,19.96C74.85,19.92 75.21,19.9 75.58,19.9C75.95,19.9 76.32,19.93 76.69,19.97C77.06,20.01 77.42,20.08 77.79,20.15C78.16,20.22 78.53,20.31 78.9,20.39C79.27,20.47 79.64,20.55 80.01,20.62C80.38,20.69 80.74,20.76 81.11,20.81Q81.48,20.87 82.22,20.95L82.22,21.28Q81.48,21.36 81.11,21.42C80.74,21.47 80.38,21.54 80.01,21.61C79.64,21.68 79.27,21.76 78.9,21.84C78.53,21.92 78.16,22.01 77.79,22.08C77.42,22.15 77.06,22.22 76.69,22.26C76.32,22.3 75.95,22.33 75.58,22.33C75.21,22.33 74.85,22.31 74.48,22.27C74.11,22.23 73.74,22.17 73.37,22.1C73,22.03 72.64,21.95 72.27,21.87C71.9,21.79 71.53,21.7 71.16,21.63C70.79,21.56 70.43,21.5 70.06,21.44C69.69,21.38 69.32,21.33 68.95,21.29C68.58,21.25 68.22,21.22 67.85,21.2C67.48,21.18 67.11,21.16 66.74,21.15C66.37,21.14 66.01,21.13 65.64,21.13C65.27,21.12 64.9,21.12 64.53,21.12C64.16,21.12 63.8,21.12 63.43,21.12C63.06,21.12 62.69,21.12 62.32,21.12C61.95,21.12 61.59,21.12 61.22,21.12C60.85,21.12 60.48,21.12 60.11,21.12C59.74,21.12 59.38,21.12 59.01,21.12C58.64,21.12 58.27,21.12 57.9,21.12C57.53,21.12 57.17,21.12 56.8,21.12C56.43,21.12 56.06,21.12 55.69,21.12C55.32,21.12 54.96,21.12 54.59,21.12C54.22,21.12 53.85,21.13 53.48,21.13C53.11,21.13 52.75,21.13 52.38,21.14C52.01,21.15 51.64,21.16 51.27,21.18C50.9,21.2 50.54,21.21 50.17,21.24C49.8,21.27 49.43,21.31 49.06,21.36C48.69,21.41 48.32,21.47 47.95,21.54C47.58,21.61 47.22,21.68 46.85,21.76C46.48,21.84 46.11,21.93 45.74,22C45.37,22.07 45.01,22.15 44.64,22.2C44.27,22.25 43.9,22.3 43.53,22.32C43.16,22.34 42.8,22.33 42.43,22.31C42.06,22.29 41.69,22.23 41.32,22.17C40.95,22.11 40.59,22.03 40.22,21.96C39.85,21.88 39.48,21.8 39.11,21.72C38.74,21.64 38.38,21.56 38.01,21.5C37.64,21.44 37.27,21.39 36.9,21.34C36.53,21.3 36.17,21.26 35.8,21.23C35.43,21.2 35.06,21.19 34.69,21.17C34.32,21.16 33.96,21.15 33.59,21.14C33.22,21.13 32.85,21.12 32.48,21.12C32.11,21.12 31.75,21.12 31.38,21.12C31.01,21.12 30.64,21.12 30.27,21.12C29.9,21.12 29.54,21.12 29.17,21.12C28.8,21.12 28.43,21.12 28.06,21.13C27.69,21.13 27.33,21.14 26.96,21.15C26.59,21.16 26.22,21.18 25.85,21.21C25.48,21.24 25.12,21.28 24.75,21.34C24.38,21.4 24.01,21.47 23.64,21.58C23.27,21.69 22.9,21.83 22.54,21.99C22.16,22.16 21.79,22.36 21.43,22.59C21.05,22.82 20.69,23.1 20.33,23.38C19.96,23.67 19.59,23.99 19.22,24.31C18.85,24.63 18.48,24.97 18.11,25.3C17.74,25.63 17.38,25.96 17.01,26.29C16.64,26.62 16.27,26.94 15.9,27.27C15.53,27.6 15.16,27.93 14.8,28.28C14.43,28.64 14.05,29 13.69,29.4C13.31,29.81 12.95,30.26 12.59,30.72C12.21,31.2 11.85,31.71 11.48,32.21C11.11,32.72 10.76,33.26 10.38,33.75C10.02,34.22 9.66,34.73 9.27,35.1C8.92,35.43 8.56,35.79 8.17,35.9C7.82,36 7.4,35.98 7.06,35.82C6.65,35.63 6.3,35.17 5.96,34.72C5.55,34.17 5.2,33.43 4.85,32.71C4.46,31.91 4.12,31 3.75,30.14C3.38,29.27 3.02,28.35 2.64,27.51C2.28,26.72 1.93,25.92 1.54,25.22C1.19,24.59 0.83,23.99 0.43,23.49Q0.08,23.05 -0.67,22.36Z" style="vector-effect: none; stroke-width: 2px; stroke: rgb(181, 181, 181); stroke-opacity: 1; fill: rgb(181, 181, 181); fill-opacity: 1;"/><path class="box" d="M8.83,24.81V17.42M6.27,24.81V17.42H14.03V24.81ZM6.27,21.12H6.02M14.03,21.12H17.26" style="vector-effect: non-scaling-stroke; stroke-width: 2px; stroke: rgb(181, 181, 181); stroke-opacity: 1; fill: rgb(181, 181, 181); fill-opacity: 1;"/><path class="mean" d="M14.54,24.81V17.42" style="fill: none; vector-effect: non-scaling-stroke; stroke-width: 2px; stroke-dasharray: 4px, 2px; stroke: rgb(181, 181, 181); stroke-opacity: 1;"/></g></g><g class="scatterlayer mlayer"><g class="trace scatter tracede9717" style="stroke-miterlimit: 2; opacity: 1;"><g class="fills"/><g class="errorbars"/><g class="lines"/><g class="points"><path class="point" transform="translate(75.52,21.12)" d="M2,0A2,2 0 1,1 0,-2A2,2 0 0,1 2,0Z" style="opacity: 1; stroke-width: 0px; fill: rgb(11, 121, 230); fill-opacity: 1;"/></g><g class="text"/></g><g class="trace scatter tracebf2874" style="stroke-miterlimit: 2; opacity: 1;"><g class="fills"/><g class="errorbars"/><g class="lines"/><g class="points"><path class="point" transform="translate(43.08,21.12)" d="M2,0A2,2 0 1,1 0,-2A2,2 0 0,1 2,0Z" style="opacity: 1; stroke-width: 0px; fill: rgb(11, 121, 230); fill-opacity: 1;"/></g><g class="text"/></g><g class="trace scatter traced1c61c" style="stroke-miterlimit: 2; opacity: 1;"><g class="fills"/><g class="errorbars"/><g class="lines"/><g class="points"><path class="point" transform="translate(17.26,21.12)" d="M2,0A2,2 0 1,1 0,-2A2,2 0 0,1 2,0Z" style="opacity: 1; stroke-width: 0px; fill: rgb(11, 121, 230); fill-opacity: 1;"/></g><g class="text"/></g><g class="trace scatter tracebfa57c" style="stroke-miterlimit: 2; opacity: 1;"><g class="fills"/><g class="errorbars"/><g class="lines"/><g class="points"><path class="point" transform="translate(17.06,21.12)" d="M2,0A2,2 0 1,1 0,-2A2,2 0 0,1 2,0Z" style="opacity: 1; stroke-width: 0px; fill: rgb(11, 121, 230); fill-opacity: 1;"/></g><g class="text"/></g><g class="trace scatter trace7f4a60" style="stroke-miterlimit: 2; opacity: 1;"><g class="fills"/><g class="errorbars"/><g class="lines"/><g class="points"><path class="point" transform="translate(15.92,21.12)" d="M2,0A2,2 0 1,1 0,-2A2,2 0 0,1 2,0Z" style="opacity: 1; stroke-width: 0px; fill: rgb(11, 121, 230); fill-opacity: 1;"/></g><g class="text"/></g><g class="trace scatter trace26217f" style="stroke-miterlimit: 2; opacity: 1;"><g class="fills"/><g class="errorbars"/><g class="lines"/><g class="points"><path class="point" transform="translate(12.14,21.12)" d="M2,0A2,2 0 1,1 0,-2A2,2 0 0,1 2,0Z" style="opacity: 1; stroke-width: 0px; fill: rgb(11, 121, 230); fill-opacity: 1;"/></g><g class="text"/></g><g class="trace scatter trace039631" style="stroke-miterlimit: 2; opacity: 1;"><g class="fills"/><g class="errorbars"/><g class="lines"/><g class="points"><path class="point" transform="translate(12.04,21.12)" d="M2,0A2,2 0 1,1 0,-2A2,2 0 0,1 2,0Z" style="opacity: 1; stroke-width: 0px; fill: rgb(11, 121, 230); fill-opacity: 1;"/></g><g class="text"/></g><g class="trace scatter trace8ed757" style="stroke-miterlimit: 2; opacity: 1;"><g class="fills"/><g class="errorbars"/><g class="lines"/><g class="points"><path class="point" transform="translate(11.99,21.12)" d="M2,0A2,2 0 1,1 0,-2A2,2 0 0,1 2,0Z" style="opacity: 1; stroke-width: 0px; fill: rgb(11, 121, 230); fill-opacity: 1;"/></g><g class="text"/></g><g class="trace scatter tracef1166a" style="stroke-miterlimit: 2; opacity: 1;"><g class="fills"/><g class="errorbars"/><g class="lines"/><g class="points"><path class="point" transform="translate(10.5,21.12)" d="M2,0A2,2 0 1,1 0,-2A2,2 0 0,1 2,0Z" style="opacity: 1; stroke-width: 0px; fill: rgb(11, 121, 230); fill-opacity: 1;"/></g><g class="text"/></g><g class="trace scatter trace2c8134" style="stroke-miterlimit: 2; opacity: 1;"><g class="fills"/><g class="errorbars"/><g class="lines"/><g class="points"><path class="point" transform="translate(9.05,21.12)" d="M2,0A2,2 0 1,1 0,-2A2,2 0 0,1 2,0Z" style="opacity: 1; stroke-width: 0px; fill: rgb(11, 121, 230); fill-opacity: 1;"/></g><g class="text"/></g><g class="trace scatter trace0da6bb" style="stroke-miterlimit: 2; opacity: 1;"><g class="fills"/><g class="errorbars"/><g class="lines"/><g class="points"><path class="point" transform="translate(8.61,21.12)" d="M2,0A2,2 0 1,1 0,-2A2,2 0 0,1 2,0Z" style="opacity: 1; stroke-width: 0px; fill: rgb(11, 121, 230); fill-opacity: 1;"/></g><g class="text"/></g><g class="trace scatter trace884530" style="stroke-miterlimit: 2; opacity: 1;"><g class="fills"/><g class="errorbars"/><g class="lines"/><g class="points"><path class="point" transform="translate(7.26,21.12)" d="M2,0A2,2 0 1,1 0,-2A2,2 0 0,1 2,0Z" style="opacity: 1; stroke-width: 0px; fill: rgb(11, 121, 230); fill-opacity: 1;"/></g><g class="text"/></g><g class="trace scatter trace7efefc" style="stroke-miterlimit: 2; opacity: 1;"><g class="fills"/><g class="errorbars"/><g class="lines"/><g class="points"><path class="point" transform="translate(7.06,21.12)" d="M2,0A2,2 0 1,1 0,-2A2,2 0 0,1 2,0Z" style="opacity: 1; stroke-width: 0px; fill: rgb(11, 121, 230); fill-opacity: 1;"/></g><g class="text"/></g><g class="trace scatter tracee7e963" style="stroke-miterlimit: 2; opacity: 1;"><g class="fills"/><g class="errorbars"/><g class="lines"/><g class="points"><path class="point" transform="translate(6.52,21.12)" d="M2,0A2,2 0 1,1 0,-2A2,2 0 0,1 2,0Z" style="opacity: 1; stroke-width: 0px; fill: rgb(11, 121, 230); fill-opacity: 1;"/></g><g class="text"/></g><g class="trace scatter tracea3b969" style="stroke-miterlimit: 2; opacity: 1;"><g class="fills"/><g class="errorbars"/><g class="lines"/><g class="points"><path class="point" transform="translate(6.27,21.12)" d="M2,0A2,2 0 1,1 0,-2A2,2 0 0,1 2,0Z" style="opacity: 1; stroke-width: 0px; fill: rgb(11, 121, 230); fill-opacity: 1;"/></g><g class="text"/></g><g class="trace scatter trace036c45" style="stroke-miterlimit: 2; opacity: 1;"><g class="fills"/><g class="errorbars"/><g class="lines"/><g class="points"><path class="point" transform="translate(6.27,21.12)" d="M2,0A2,2 0 1,1 0,-2A2,2 0 0,1 2,0Z" style="opacity: 1; stroke-width: 0px; fill: rgb(11, 121, 230); fill-opacity: 1;"/></g><g class="text"/></g><g class="trace scatter tracec80530" style="stroke-miterlimit: 2; opacity: 1;"><g class="fills"/><g class="errorbars"/><g class="lines"/><g class="points"><path class="point" transform="translate(6.12,21.12)" d="M2,0A2,2 0 1,1 0,-2A2,2 0 0,1 2,0Z" style="opacity: 1; stroke-width: 0px; fill: rgb(11, 121, 230); fill-opacity: 1;"/></g><g class="text"/></g><g class="trace scatter trace1cde51" style="stroke-miterlimit: 2; opacity: 1;"><g class="fills"/><g class="errorbars"/><g class="lines"/><g class="points"><path class="point" transform="translate(6.12,21.12)" d="M2,0A2,2 0 1,1 0,-2A2,2 0 0,1 2,0Z" style="opacity: 1; stroke-width: 0px; fill: rgb(11, 121, 230); fill-opacity: 1;"/></g><g class="text"/></g><g class="trace scatter trace60d2d5" style="stroke-miterlimit: 2; opacity: 1;"><g class="fills"/><g class="errorbars"/><g class="lines"/><g class="points"><path class="point" transform="translate(6.07,21.12)" d="M2,0A2,2 0 1,1 0,-2A2,2 0 0,1 2,0Z" style="opacity: 1; stroke-width: 0px; fill: rgb(11, 121, 230); fill-opacity: 1;"/></g><g class="text"/></g><g class="trace scatter trace179cc1" style="stroke-miterlimit: 2; opacity: 1;"><g class="fills"/><g class="errorbars"/><g class="lines"/><g class="points"><path class="point" transform="translate(6.02,21.12)" d="M2,0A2,2 0 1,1 0,-2A2,2 0 0,1 2,0Z" style="opacity: 1; stroke-width: 0px; fill: rgb(11, 121, 230); fill-opacity: 1;"/></g><g class="text"/></g></g></g></g><path class="xlines-above crisp" d="M0,0" style="fill: none;"/><path class="ylines-above crisp" d="M0,0" style="fill: none;"/><g class="overlines-above"/><g class="xaxislayer-above"><g class="x3tick"><text text-anchor="middle" x="0" y="243" transform="translate(84.98,0)" style="font-family: 'Lucida Grande', 'Open Sans', verdana, arial, sans-serif; font-size: 9px; fill: rgb(0, 0, 0); fill-opacity: 0.5; white-space: pre; opacity: 1;">0%</text></g><g class="x3tick"><text text-anchor="middle" x="0" y="243" style="font-family: 'Lucida Grande', 'Open Sans', verdana, arial, sans-serif; font-size: 9px; fill: rgb(0, 0, 0); fill-opacity: 0.5; white-space: pre; opacity: 1;" transform="translate(283.98,0)">20%</text></g><g class="x3tick"><text text-anchor="middle" x="0" y="243" style="font-family: 'Lucida Grande', 'Open Sans', verdana, arial, sans-serif; font-size: 9px; fill: rgb(0, 0, 0); fill-opacity: 0.5; white-space: pre; opacity: 1;" transform="translate(482.99,0)">40%</text></g><g class="x3tick"><text text-anchor="middle" x="0" y="243" style="font-family: 'Lucida Grande', 'Open Sans', verdana, arial, sans-serif; font-size: 9px; fill: rgb(0, 0, 0); fill-opacity: 0.5; white-space: pre; opacity: 1;" transform="translate(681.99,0)">60%</text></g><g class="x3tick"><text text-anchor="middle" x="0" y="243" style="font-family: 'Lucida Grande', 'Open Sans', verdana, arial, sans-serif; font-size: 9px; fill: rgb(0, 0, 0); fill-opacity: 0.5; white-space: pre; opacity: 1;" transform="translate(881,0)">80%</text></g><g class="x3tick"><text text-anchor="middle" x="0" y="243" style="font-family: 'Lucida Grande', 'Open Sans', verdana, arial, sans-serif; font-size: 9px; fill: rgb(0, 0, 0); fill-opacity: 0.5; white-space: pre; opacity: 1;" transform="translate(1080,0)">100%</text></g></g><g class="yaxislayer-above"><g class="y3tick"><text text-anchor="end" x="79" y="3.15" transform="translate(0,211.88923076923078)" style="font-family: 'Lucida Grande', 'Open Sans', verdana, arial, sans-serif; font-size: 9px; fill: rgb(0, 0, 0); fill-opacity: 0.5; white-space: pre; opacity: 1;">% of all reads  </text></g></g><g class="overaxes-above"/></g></g><g class="polarlayer"/><g class="smithlayer"/><g class="ternarylayer"/><g class="geolayer"/><g class="funnelarealayer"/><g class="pielayer"/><g class="iciclelayer"/><g class="treemaplayer"/><g class="sunburstlayer"/><g class="glimages"/><defs id="topdefs-c5e1f1"><g class="clips"/></defs><g class="layer-above"><g class="imagelayer"/><g class="shapelayer"/></g><g class="infolayer"><g class="g-gtitle"><text class="gtitle" x="550" y="25" text-anchor="middle" dy="0em" style="opacity: 1; font-family: 'Lucida Grande', 'Open Sans', verdana, arial, sans-serif; font-size: 20px; fill: rgb(42, 63, 95); fill-opacity: 1; white-space: pre;"><tspan class="line" dy="0em" x="550" y="25">FastQC: Top overrepresented sequences</tspan><tspan class="line" dy="1.3em" x="550" y="25"><tspan style="font-size:70%" dy="-0.6em">20 samples</tspan><tspan dy="0.42em"></tspan></tspan></text></g><g class="g-xtitle"/><g class="g-x2title"/><g class="g-x3title"/><g class="g-ytitle"/><g class="g-y2title"/><g class="g-y3title"/></g></svg>