<svg class="main-svg" xmlns="http://www.w3.org/2000/svg" xmlns:xlink="http://www.w3.org/1999/xlink" width="2200" height="1000" style="" viewBox="0 0 1100 500"><rect x="0" y="0" width="1100" height="500" style="fill: rgb(255, 255, 255); fill-opacity: 1;"/><defs id="defs-817b22"><g class="clips"><clipPath id="clip817b22xyplot" class="plotclip"><rect width="1012" height="385"/></clipPath><clipPath class="axesclip" id="clip817b22x"><rect x="62" y="0" width="1012" height="500"/></clipPath><clipPath class="axesclip" id="clip817b22y"><rect x="0" y="50" width="1100" height="385"/></clipPath><clipPath class="axesclip" id="clip817b22xy"><rect x="62" y="50" width="1012" height="385"/></clipPath></g><g class="gradients"/><g class="patterns"/></defs><g class="bglayer"/><g class="layer-below"><g class="imagelayer"/><g class="shapelayer"/></g><g class="cartesianlayer"><g class="subplot xy"><g class="layer-subplot"><g class="shapelayer"/><g class="imagelayer"/></g><g class="minor-gridlayer"><g class="x"/><g class="y"/></g><g class="gridlayer"><g class="x"><path class="xgrid crisp" transform="translate(264.4,0)" d="M0,50v385" style="stroke: rgb(0, 0, 0); stroke-opacity: 0.05; stroke-width: 1px;"/><path class="xgrid crisp" transform="translate(466.8,0)" d="M0,50v385" style="stroke: rgb(0, 0, 0); stroke-opacity: 0.05; stroke-width: 1px;"/><path class="xgrid crisp" transform="translate(669.2,0)" d="M0,50v385" style="stroke: rgb(0, 0, 0); stroke-opacity: 0.05; stroke-width: 1px;"/><path class="xgrid crisp" transform="translate(871.6,0)" d="M0,50v385" style="stroke: rgb(0, 0, 0); stroke-opacity: 0.05; stroke-width: 1px;"/></g><g class="y"><path class="ygrid crisp" transform="translate(0,376.29)" d="M62,0h1012" style="stroke: rgb(0, 0, 0); stroke-opacity: 0.05; stroke-width: 1px;"/><path class="ygrid crisp" transform="translate(0,317.58)" d="M62,0h1012" style="stroke: rgb(0, 0, 0); stroke-opacity: 0.05; stroke-width: 1px;"/><path class="ygrid crisp" transform="translate(0,258.88)" d="M62,0h1012" style="stroke: rgb(0, 0, 0); stroke-opacity: 0.05; stroke-width: 1px;"/><path class="ygrid crisp" transform="translate(0,200.17)" d="M62,0h1012" style="stroke: rgb(0, 0, 0); stroke-opacity: 0.05; stroke-width: 1px;"/><path class="ygrid crisp" transform="translate(0,141.45999999999998)" d="M62,0h1012" style="stroke: rgb(0, 0, 0); stroke-opacity: 0.05; stroke-width: 1px;"/><path class="ygrid crisp" transform="translate(0,82.75)" d="M62,0h1012" style="stroke: rgb(0, 0, 0); stroke-opacity: 0.05; stroke-width: 1px;"/></g></g><g class="zerolinelayer"><path class="xzl zl crisp" transform="translate(62,0)" d="M0,50v385" style="stroke: rgb(0, 0, 0); stroke-opacity: 0.05; stroke-width: 2px;"/><path class="yzl zl crisp" transform="translate(0,435)" d="M62,0h1012" style="stroke: rgb(0, 0, 0); stroke-opacity: 0.05; stroke-width: 2px;"/></g><g class="layer-between"><g class="shapelayer"/><g class="imagelayer"/></g><path class="xlines-below"/><path class="ylines-below"/><g class="overlines-below"/><g class="xaxislayer-below"/><g class="yaxislayer-below"/><g class="overaxes-below"/><g class="overplot"><g class="xy" transform="translate(62,50)" clip-path="url(#clip817b22xyplot)"><g class="scatterlayer mlayer"><g class="trace scatter trace0ccc27" style="stroke-miterlimit: 2; opacity: 1;"><g class="fills"/><g class="errorbars"/><g class="lines"><path class="js-line" d="M0,19.25L20.24,385L30.36,385L425.04,384.41L435.16,384.02L455.4,381.48L465.52,377.96L475.64,374.04L485.76,362.69L495.88,362.59L506,328.93L516.12,323.85L526.24,331.18L536.36,309.95L546.48,298.9L556.6,326.98L566.72,349.09L576.84,371.11L586.96,369.15L597.08,369.15L607.2,378.05L627.44,382.65L637.56,383.04L647.68,384.12L657.8,384.22L667.92,384.8L678.04,384.61L718.52,385L728.64,384.71L1012,385" style="vector-effect: none; fill: none; stroke: rgb(217, 83, 79); stroke-opacity: 1; stroke-width: 2px; opacity: 1;"/></g><g class="points"/><g class="text"/></g><g class="trace scatter trace8e3812" style="stroke-miterlimit: 2; opacity: 1;"><g class="fills"/><g class="errorbars"/><g class="lines"><path class="js-line" d="M0,24.53L20.24,385L30.36,385L414.92,384.61L425.04,384.02L435.16,382.46L445.28,378.35L455.4,381.67L465.52,378.74L475.64,377.56L485.76,364.26L495.88,335.1L506,352.03L516.12,348.89L526.24,334.51L536.36,317.49L546.48,279.82L556.6,312.01L566.72,354.28L576.84,367.68L586.96,374.63L597.08,371.3L607.2,377.66L617.32,381.67L627.44,381.77L657.8,384.61L667.92,384.8L1012,385" style="vector-effect: none; fill: none; stroke: rgb(217, 83, 79); stroke-opacity: 1; stroke-width: 2px; opacity: 1;"/></g><g class="points"/><g class="text"/></g><g class="trace scatter trace8bb060" style="stroke-miterlimit: 2; opacity: 1;"><g class="fills"/><g class="errorbars"/><g class="lines"><path class="js-line" d="M0,379.13L20.24,385L30.36,385L394.68,384.61L404.8,383.83L414.92,383.53L425.04,381.58L435.16,380.4L445.28,380.21L465.52,365.63L475.64,360.54L485.76,358.87L495.88,346.74L506,315.82L516.12,303.49L526.24,279.33L536.36,277.17L546.48,317.78L556.6,333.04L566.72,351.15L576.84,358.97L586.96,364.65L597.08,367.39L617.32,371.79L627.44,377.07L637.56,380.89L647.68,381.28L657.8,382.16L667.92,382.26L678.04,383.83L688.16,383.73L728.64,385L738.76,385L1012,385" style="vector-effect: none; fill: none; stroke: rgb(217, 83, 79); stroke-opacity: 1; stroke-width: 2px; opacity: 1;"/></g><g class="points"/><g class="text"/></g><g class="trace scatter trace6030b6" style="stroke-miterlimit: 2; opacity: 1;"><g class="fills"/><g class="errorbars"/><g class="lines"><path class="js-line" d="M0,379.13L20.24,385L30.36,385L394.68,385L404.8,383.53L425.04,381.28L435.16,379.03L445.28,379.23L455.4,371.5L465.52,364.45L475.64,365.33L485.76,352.42L495.88,351.63L506,342.34L516.12,304.08L526.24,297.23L536.36,315.53L546.48,315.92L556.6,299.38L566.72,307.02L576.84,348.11L586.96,362.3L597.08,371.11L617.32,374.73L627.44,378.64L637.56,381.67L647.68,382.46L657.8,381.97L667.92,383.53L718.52,384.8L728.64,384.51L779.24,385L789.36,385L1012,385" style="vector-effect: none; fill: none; stroke: rgb(217, 83, 79); stroke-opacity: 1; stroke-width: 2px; opacity: 1;"/></g><g class="points"/><g class="text"/></g><g class="trace scatter traceee1f7e" style="stroke-miterlimit: 2; opacity: 1;"><g class="fills"/><g class="errorbars"/><g class="lines"><path class="js-line" d="M0,344.49L20.24,385L30.36,385L404.8,384.8L414.92,384.02L445.28,382.26L455.4,379.32L465.52,375.8L475.64,369.15L485.76,336.08L495.88,344.69L506,328.05L516.12,326L526.24,324.73L536.36,296.94L546.48,255.35L556.6,315.53L566.72,346.35L576.84,363.18L597.08,366.8L607.2,376.19L627.44,382.16L637.56,381.38L667.92,384.8L678.04,385L1012,385" style="vector-effect: none; fill: none; stroke: rgb(217, 83, 79); stroke-opacity: 1; stroke-width: 2px; opacity: 1;"/></g><g class="points"/><g class="text"/></g><g class="trace scatter trace382432" style="stroke-miterlimit: 2; opacity: 1;"><g class="fills"/><g class="errorbars"/><g class="lines"><path class="js-line" d="M0,345.08L20.24,385L30.36,385L414.92,385L425.04,383.04L435.16,381.28L445.28,381.48L455.4,379.13L465.52,374.63L475.64,373.26L485.76,356.82L495.88,337.45L506,341.26L516.12,333.73L526.24,311.03L536.36,305.65L546.48,240.97L556.6,287.54L566.72,355.84L576.84,362.69L586.96,366.41L597.08,365.92L607.2,373.85L617.32,380.01L627.44,381.18L647.68,384.61L657.8,384.02L708.4,385L718.52,385L1012,385" style="vector-effect: none; fill: none; stroke: rgb(217, 83, 79); stroke-opacity: 1; stroke-width: 2px; opacity: 1;"/></g><g class="points"/><g class="text"/></g><g class="trace scatter tracee963eb" style="stroke-miterlimit: 2; opacity: 1;"><g class="fills"/><g class="errorbars"/><g class="lines"><path class="js-line" d="M0,377.96L20.24,385L30.36,385L394.68,384.41L404.8,384.22L435.16,381.58L445.28,382.26L455.4,378.25L465.52,365.53L475.64,357.7L485.76,355.65L495.88,345.57L506,311.52L516.12,299.48L526.24,278.15L536.36,277.08L546.48,317.09L566.72,349.09L576.84,353.1L586.96,362.69L597.08,373.36L607.2,372.77L617.32,373.36L627.44,378.54L637.56,381.97L657.8,383.14L667.92,383.24L718.52,385L728.64,385L1012,385" style="vector-effect: none; fill: none; stroke: rgb(217, 83, 79); stroke-opacity: 1; stroke-width: 2px; opacity: 1;"/></g><g class="points"/><g class="text"/></g><g class="trace scatter trace91562e" style="stroke-miterlimit: 2; opacity: 1;"><g class="fills"/><g class="errorbars"/><g class="lines"><path class="js-line" d="M0,377.96L20.24,385L30.36,385L374.44,384.8L384.56,384.02L404.8,384.02L414.92,383.83L425.04,383.73L435.16,378.54L445.28,374.92L455.4,372.38L465.52,366.9L475.64,364.84L506,344.3L516.12,299.58L526.24,289.11L536.36,308.29L546.48,314.35L556.6,287.64L566.72,312.5L576.84,355.35L586.96,365.33L597.08,373.36L607.2,375.12L617.32,375.22L627.44,381.97L637.56,382.75L647.68,382.55L657.8,383.24L678.04,384.22L688.16,384.8L1012,385" style="vector-effect: none; fill: none; stroke: rgb(217, 83, 79); stroke-opacity: 1; stroke-width: 2px; opacity: 1;"/></g><g class="points"/><g class="text"/></g></g></g></g><path class="xlines-above crisp" d="M0,0" style="fill: none;"/><path class="ylines-above crisp" d="M0,0" style="fill: none;"/><g class="overlines-above"/><g class="xaxislayer-above"><g class="xtick"><text text-anchor="middle" x="0" y="451" transform="translate(62,0)" style="font-family: 'Lucida Grande', 'Open Sans', verdana, arial, sans-serif; font-size: 10px; fill: rgb(0, 0, 0); fill-opacity: 1; white-space: pre; opacity: 1;">0%</text></g><g class="xtick"><text text-anchor="middle" x="0" y="451" style="font-family: 'Lucida Grande', 'Open Sans', verdana, arial, sans-serif; font-size: 10px; fill: rgb(0, 0, 0); fill-opacity: 1; white-space: pre; opacity: 1;" transform="translate(264.4,0)">20%</text></g><g class="xtick"><text text-anchor="middle" x="0" y="451" style="font-family: 'Lucida Grande', 'Open Sans', verdana, arial, sans-serif; font-size: 10px; fill: rgb(0, 0, 0); fill-opacity: 1; white-space: pre; opacity: 1;" transform="translate(466.8,0)">40%</text></g><g class="xtick"><text text-anchor="middle" x="0" y="451" style="font-family: 'Lucida Grande', 'Open Sans', verdana, arial, sans-serif; font-size: 10px; fill: rgb(0, 0, 0); fill-opacity: 1; white-space: pre; opacity: 1;" transform="translate(669.2,0)">60%</text></g><g class="xtick"><text text-anchor="middle" x="0" y="451" style="font-family: 'Lucida Grande', 'Open Sans', verdana, arial, sans-serif; font-size: 10px; fill: rgb(0, 0, 0); fill-opacity: 1; white-space: pre; opacity: 1;" transform="translate(871.6,0)">80%</text></g><g class="xtick"><text text-anchor="middle" x="0" y="451" style="font-family: 'Lucida Grande', 'Open Sans', verdana, arial, sans-serif; font-size: 10px; fill: rgb(0, 0, 0); fill-opacity: 1; white-space: pre; opacity: 1;" transform="translate(1074,0)">100%</text></g></g><g class="yaxislayer-above"><g class="ytick"><text text-anchor="end" x="56" y="3.5" transform="translate(0,435)" style="font-family: 'Lucida Grande', 'Open Sans', verdana, arial, sans-serif; font-size: 10px; fill: rgb(0, 0, 0); fill-opacity: 1; white-space: pre; opacity: 1;">0</text></g><g class="ytick"><text text-anchor="end" x="56" y="3.5" style="font-family: 'Lucida Grande', 'Open Sans', verdana, arial, sans-serif; font-size: 10px; fill: rgb(0, 0, 0); fill-opacity: 1; white-space: pre; opacity: 1;" transform="translate(0,376.29)">100</text></g><g class="ytick"><text text-anchor="end" x="56" y="3.5" style="font-family: 'Lucida Grande', 'Open Sans', verdana, arial, sans-serif; font-size: 10px; fill: rgb(0, 0, 0); fill-opacity: 1; white-space: pre; opacity: 1;" transform="translate(0,317.58)">200</text></g><g class="ytick"><text text-anchor="end" x="56" y="3.5" style="font-family: 'Lucida Grande', 'Open Sans', verdana, arial, sans-serif; font-size: 10px; fill: rgb(0, 0, 0); fill-opacity: 1; white-space: pre; opacity: 1;" transform="translate(0,258.88)">300</text></g><g class="ytick"><text text-anchor="end" x="56" y="3.5" style="font-family: 'Lucida Grande', 'Open Sans', verdana, arial, sans-serif; font-size: 10px; fill: rgb(0, 0, 0); fill-opacity: 1; white-space: pre; opacity: 1;" transform="translate(0,200.17)">400</text></g><g class="ytick"><text text-anchor="end" x="56" y="3.5" style="font-family: 'Lucida Grande', 'Open Sans', verdana, arial, sans-serif; font-size: 10px; fill: rgb(0, 0, 0); fill-opacity: 1; white-space: pre; opacity: 1;" transform="translate(0,141.45999999999998)">500</text></g><g class="ytick"><text text-anchor="end" x="56" y="3.5" style="font-family: 'Lucida Grande', 'Open Sans', verdana, arial, sans-serif; font-size: 10px; fill: rgb(0, 0, 0); fill-opacity: 1; white-space: pre; opacity: 1;" transform="translate(0,82.75)">600</text></g></g><g class="overaxes-above"/></g></g><g class="polarlayer"/><g class="smithlayer"/><g class="ternarylayer"/><g class="geolayer"/><g class="funnelarealayer"/><g class="pielayer"/><g class="iciclelayer"/><g class="treemaplayer"/><g class="sunburstlayer"/><g class="glimages"/><defs id="topdefs-817b22"><g class="clips"/></defs><g class="layer-above"><g class="imagelayer"/><g class="shapelayer"/></g><g class="infolayer"><g class="g-gtitle"><text class="gtitle" x="550" y="25" text-anchor="middle" dy="0em" style="opacity: 1; font-family: 'Lucida Grande', 'Open Sans', verdana, arial, sans-serif; font-size: 20px; fill: rgb(42, 63, 95); fill-opacity: 1; white-space: pre;"><tspan class="line" dy="0em" x="550" y="25">FastQC: Per Sequence GC Content</tspan><tspan class="line" dy="1.3em" x="550" y="25">​<tspan style="font-size:70%" dy="-0.6em">Counts, 8 samples</tspan><tspan dy="0.42em">​</tspan></tspan></text></g><g class="g-xtitle"><text class="xtitle" x="568" y="472.3" text-anchor="middle" style="opacity: 0.3; font-family: 'Lucida Grande', 'Open Sans', verdana, arial, sans-serif; font-size: 14px; fill: rgb(0, 0, 0); fill-opacity: 1; white-space: pre;">% GC</text></g><g class="g-ytitle"><text class="ytitle" transform="rotate(-90,22.50625,242.5)" x="22.50625" y="242.5" text-anchor="middle" style="opacity: 0.3; font-family: 'Lucida Grande', 'Open Sans', verdana, arial, sans-serif; font-size: 14px; fill: rgb(0, 0, 0); fill-opacity: 1; white-space: pre;">Count</text></g></g></svg>